<svg class="typst-doc" viewBox="0 0 451.2255000000001 160.99425000000002" width="451.2255000000001pt" height="160.99425000000002pt" xmlns="http://www.w3.org/2000/svg" xmlns:xlink="http://www.w3.org/1999/xlink" xmlns:h5="http://www.w3.org/1999/xhtml">
    <path class="typst-shape" fill="#00000000" fill-rule="nonzero" d="M 0 0v 160.99425 h 451.2255 v -160.99425 Z "/>
    <g>
        <g class="typst-group">
            <g>
                <g class="typst-text" transform="matrix(1 0 0 -1 0 34.93124999999999)">
                    <use xlink:href="#g4D666FB2E302688B5A4F5EA1C2D9CAB6" x="0" y="0" fill="#000000" fill-rule="nonzero"/>
                    <use xlink:href="#g68974D19437D2956F5A8728A4531F573" x="7.452" y="0" fill="#000000" fill-rule="nonzero"/>
                    <use xlink:href="#g4A6A4EA0692ACB96D3E210986AAEF370" x="14.904" y="0" fill="#000000" fill-rule="nonzero"/>
                    <use xlink:href="#g5A05A1EAF291CE968A27C0771E5553EF" x="22.356" y="0" fill="#000000" fill-rule="nonzero"/>
                    <use xlink:href="#g320F1411D07D5E909CC1A7DC49627AC7" x="29.808" y="0" fill="#000000" fill-rule="nonzero"/>
                    <use xlink:href="#g4D666FB2E302688B5A4F5EA1C2D9CAB6" x="37.26" y="0" fill="#000000" fill-rule="nonzero"/>
                </g>
                <g class="typst-text" transform="matrix(1 0 0 -1 44.71200000000001 34.93124999999999)">
                    <use xlink:href="#gDC16F090CB9C4151F80E51675F2D2B3E" x="0" y="0" fill="#000000" fill-rule="nonzero"/>
                </g>
                <g class="typst-group" transform="matrix(1 0 0 1 50.751225000000005 1.5525000000000002)">
                    <g>
                        <g class="typst-group">
                            <g>
                                <g class="typst-group">
                                    <g>
                                        <path class="typst-shape" fill="none" stroke="#000000" stroke-width="0.7452" stroke-linecap="round" stroke-linejoin="miter" stroke-miterlimit="4" transform="matrix(1 0 0 1 10.599966989999993 10.599966990000206)" d="M 0 0m 14.321266 0 l -14.321266 14.321266 "/>
                                        <path class="typst-shape" fill="none" stroke="#000000" stroke-width="0.7452" stroke-linecap="round" stroke-linejoin="miter" stroke-miterlimit="4" transform="matrix(1 0 0 1 10.599966989999999 33.70116699000002)" d="M 0 0l 14.321266 14.321266 "/>
                                        <path class="typst-shape" fill="none" stroke="#000000" stroke-width="0.7452" stroke-linecap="round" stroke-linejoin="miter" stroke-miterlimit="4" transform="matrix(1 0 0 1 33.701166989999905 10.599966989999931)" d="M 0 0l 14.321266 14.321266 "/>
                                        <path class="typst-shape" fill="none" stroke="#000000" stroke-width="0.8" stroke-linecap="butt" stroke-linejoin="miter" stroke-miterlimit="4" transform="matrix(1 0 0 1 23.101200000000002 0)" d="M 0 0m 6.21 0 c -3.4265788 0 -6.21 2.7834213 -6.21 6.21 c 0 3.4265785 2.7834213 6.21 6.21 6.21 c 3.4265785 0 6.21 -2.7834215 6.21 -6.21 c 0 -3.4265788 -2.7834215 -6.21 -6.21 -6.21 Z "/>
                                        <path class="typst-shape" fill="none" stroke="#000000" stroke-width="0.8" stroke-linecap="butt" stroke-linejoin="miter" stroke-miterlimit="4" transform="matrix(1 0 0 1 0 23.101200000000013)" d="M 0 0m 6.21 0 c -3.4265788 0 -6.21 2.7834213 -6.21 6.21 c 0 3.4265785 2.7834213 6.21 6.21 6.21 c 3.4265785 0 6.21 -2.7834215 6.21 -6.21 c 0 -3.4265788 -2.7834215 -6.21 -6.21 -6.21 Z "/>
                                        <path class="typst-shape" fill="none" stroke="#000000" stroke-width="0.8" stroke-linecap="butt" stroke-linejoin="miter" stroke-miterlimit="4" transform="matrix(1 0 0 1 23.101200000000002 46.20240000000001)" d="M 0 0m 6.21 0 c -3.4265788 0 -6.21 2.7834213 -6.21 6.21 c 0 3.4265785 2.7834213 6.21 6.21 6.21 c 3.4265785 0 6.21 -2.7834215 6.21 -6.21 c 0 -3.4265788 -2.7834215 -6.21 -6.21 -6.21 Z "/>
                                        <path class="typst-shape" fill="none" stroke="#000000" stroke-width="0.8" stroke-linecap="butt" stroke-linejoin="miter" stroke-miterlimit="4" transform="matrix(1 0 0 1 46.2024 23.101200000000013)" d="M 0 0m 6.21 0 c -3.4265788 0 -6.21 2.7834213 -6.21 6.21 c 0 3.4265785 2.7834213 6.21 6.21 6.21 c 3.4265785 0 6.21 -2.7834215 6.21 -6.21 c 0 -3.4265788 -2.7834215 -6.21 -6.21 -6.21 Z "/>
                                    </g>
                                </g>
                            </g>
                        </g>
                    </g>
                </g>
                <g class="typst-text" transform="matrix(1 0 0 -1 109.373625 34.93124999999999)">
                    <use xlink:href="#g7BF41A02F62F7D1CCE2BFC36BBA94D86" x="0" y="0" fill="#000000" fill-rule="nonzero"/>
                </g>
                <g class="typst-text" transform="matrix(1 0 0 -1 130.93785 34.93124999999999)">
                    <use xlink:href="#g37C507FFC0028A4AA5209F59FACC649E" x="0" y="0" fill="#000000" fill-rule="nonzero"/>
                </g>
                <g class="typst-text" transform="matrix(1 0 0 -1 158.5413 34.93124999999999)">
                    <use xlink:href="#gB5A1948AA76211B5A727B720A959DD67" x="0" y="0" fill="#000000" fill-rule="nonzero"/>
                    <use xlink:href="#g69607993AB38FFF154BF11B3D60BBFDF" x="7.452" y="0" fill="#000000" fill-rule="nonzero"/>
                    <use xlink:href="#gB5A1948AA76211B5A727B720A959DD67" x="14.904" y="0" fill="#000000" fill-rule="nonzero"/>
                </g>
                <g class="typst-text" transform="matrix(1 0 0 -1 186.05159999999998 34.93124999999999)"/>
                <g class="typst-text" transform="matrix(1 0 0 -1 196.36019999999996 34.93124999999999)">
                    <use xlink:href="#gFD28607E30A3203B808DC19B25CE109A" x="7.452" y="0" fill="#000000" fill-rule="nonzero"/>
                </g>
                <g class="typst-text" transform="matrix(1 0 0 -1 216.41849999999997 34.93124999999999)"/>
                <g class="typst-text" transform="matrix(1 0 0 -1 226.72709999999995 34.93124999999999)">
                    <use xlink:href="#g4D666FB2E302688B5A4F5EA1C2D9CAB6" x="0" y="0" fill="#000000" fill-rule="nonzero"/>
                    <use xlink:href="#g68974D19437D2956F5A8728A4531F573" x="7.452" y="0" fill="#000000" fill-rule="nonzero"/>
                    <use xlink:href="#g4A6A4EA0692ACB96D3E210986AAEF370" x="14.904" y="0" fill="#000000" fill-rule="nonzero"/>
                    <use xlink:href="#g5A05A1EAF291CE968A27C0771E5553EF" x="22.356" y="0" fill="#000000" fill-rule="nonzero"/>
                    <use xlink:href="#g320F1411D07D5E909CC1A7DC49627AC7" x="29.808" y="0" fill="#000000" fill-rule="nonzero"/>
                    <use xlink:href="#g4D666FB2E302688B5A4F5EA1C2D9CAB6" x="37.26" y="0" fill="#000000" fill-rule="nonzero"/>
                </g>
                <g class="typst-text" transform="matrix(1 0 0 -1 271.4391 34.93124999999999)">
                    <use xlink:href="#gDC16F090CB9C4151F80E51675F2D2B3E" x="0" y="0" fill="#000000" fill-rule="nonzero"/>
                </g>
                <g class="typst-group" transform="matrix(1 0 0 1 277.4783249999999 14.74875)">
                    <g>
                        <g class="typst-group">
                            <g>
                                <g class="typst-group">
                                    <g>
                                        <path class="typst-shape" fill="none" stroke="#000000" stroke-width="0.7452" stroke-linecap="round" stroke-linejoin="miter" stroke-miterlimit="4" transform="matrix(1 0 0 1 10.599966990000038 10.599966990000055)" d="M 0 0l 13.327666 13.327666 "/>
                                        <path class="typst-shape" fill="none" stroke="#000000" stroke-width="0.8" stroke-linecap="butt" stroke-linejoin="miter" stroke-miterlimit="4" d="M 0 0m 6.21 0 c -3.4265788 0 -6.21 2.7834213 -6.21 6.21 c 0 3.4265785 2.7834213 6.21 6.21 6.21 c 3.4265785 0 6.21 -2.7834215 6.21 -6.21 c 0 -3.4265788 -2.7834215 -6.21 -6.21 -6.21 Z "/>
                                        <path class="typst-shape" fill="none" stroke="#000000" stroke-width="0.8" stroke-linecap="butt" stroke-linejoin="miter" stroke-miterlimit="4" transform="matrix(1 0 0 1 22.10759999999999 22.1076)" d="M 0 0m 6.21 0 c -3.4265788 0 -6.21 2.7834213 -6.21 6.21 c 0 3.4265785 2.7834213 6.21 6.21 6.21 c 3.4265785 0 6.21 -2.7834215 6.21 -6.21 c 0 -3.4265788 -2.7834215 -6.21 -6.21 -6.21 Z "/>
                                    </g>
                                </g>
                            </g>
                        </g>
                    </g>
                </g>
                <g class="typst-text" transform="matrix(1 0 0 -1 312.00592499999993 34.93124999999999)">
                    <use xlink:href="#g7BF41A02F62F7D1CCE2BFC36BBA94D86" x="0" y="0" fill="#000000" fill-rule="nonzero"/>
                </g>
                <g class="typst-text" transform="matrix(1 0 0 -1 318.0451499999999 34.93124999999999)"/>
                <g class="typst-text" transform="matrix(1 0 0 -1 328.35375 34.93124999999999)">
                    <use xlink:href="#gFD28607E30A3203B808DC19B25CE109A" x="7.452" y="0" fill="#000000" fill-rule="nonzero"/>
                </g>
                <g class="typst-text" transform="matrix(1 0 0 -1 348.41204999999997 34.93124999999999)"/>
                <g class="typst-text" transform="matrix(1 0 0 -1 358.72065000000003 34.93124999999999)">
                    <use xlink:href="#g4D666FB2E302688B5A4F5EA1C2D9CAB6" x="0" y="0" fill="#000000" fill-rule="nonzero"/>
                    <use xlink:href="#g68974D19437D2956F5A8728A4531F573" x="7.452" y="0" fill="#000000" fill-rule="nonzero"/>
                    <use xlink:href="#g4A6A4EA0692ACB96D3E210986AAEF370" x="14.904" y="0" fill="#000000" fill-rule="nonzero"/>
                    <use xlink:href="#g5A05A1EAF291CE968A27C0771E5553EF" x="22.356" y="0" fill="#000000" fill-rule="nonzero"/>
                    <use xlink:href="#g320F1411D07D5E909CC1A7DC49627AC7" x="29.808" y="0" fill="#000000" fill-rule="nonzero"/>
                    <use xlink:href="#g4D666FB2E302688B5A4F5EA1C2D9CAB6" x="37.26" y="0" fill="#000000" fill-rule="nonzero"/>
                </g>
                <g class="typst-text" transform="matrix(1 0 0 -1 403.43265 34.93124999999999)">
                    <use xlink:href="#gDC16F090CB9C4151F80E51675F2D2B3E" x="0" y="0" fill="#000000" fill-rule="nonzero"/>
                </g>
                <g class="typst-text" transform="matrix(1 0 0 -1 409.471875 34.93124999999999)">
                    <use xlink:href="#g9F69203C21F4E869DAA7123A56237447" x="0" y="0" fill="#000000" fill-rule="nonzero"/>
                </g>
                <g class="typst-text" transform="matrix(1 0 0 -1 421.829775 34.93124999999999)">
                    <use xlink:href="#g7BF41A02F62F7D1CCE2BFC36BBA94D86" x="0" y="0" fill="#000000" fill-rule="nonzero"/>
                </g>
                <g class="typst-group">
                    <g>
                        <g class="typst-text" transform="matrix(1 0 0 -1 130.93785 75.26520000000001)">
                            <use xlink:href="#g37C507FFC0028A4AA5209F59FACC649E" x="0" y="0" fill="#000000" fill-rule="nonzero"/>
                        </g>
                        <g class="typst-text" transform="matrix(1 0 0 -1 158.5413 75.26520000000001)">
                            <use xlink:href="#gB5A1948AA76211B5A727B720A959DD67" x="0" y="0" fill="#000000" fill-rule="nonzero"/>
                            <use xlink:href="#g69607993AB38FFF154BF11B3D60BBFDF" x="7.452" y="0" fill="#000000" fill-rule="nonzero"/>
                            <use xlink:href="#gB5A1948AA76211B5A727B720A959DD67" x="14.904" y="0" fill="#000000" fill-rule="nonzero"/>
                        </g>
                        <g class="typst-text" transform="matrix(1 0 0 -1 186.05159999999998 75.26520000000001)"/>
                        <g class="typst-text" transform="matrix(1 0 0 -1 196.36019999999996 75.26520000000001)">
                            <use xlink:href="#gFD28607E30A3203B808DC19B25CE109A" x="7.452" y="0" fill="#000000" fill-rule="nonzero"/>
                        </g>
                        <g class="typst-text" transform="matrix(1 0 0 -1 216.41849999999997 75.26520000000001)"/>
                        <g class="typst-text" transform="matrix(1 0 0 -1 226.72709999999995 75.26520000000001)">
                            <use xlink:href="#gB5A1948AA76211B5A727B720A959DD67" x="0" y="0" fill="#000000" fill-rule="nonzero"/>
                            <use xlink:href="#g69607993AB38FFF154BF11B3D60BBFDF" x="7.452" y="0" fill="#000000" fill-rule="nonzero"/>
                            <use xlink:href="#gB5A1948AA76211B5A727B720A959DD67" x="14.904" y="0" fill="#000000" fill-rule="nonzero"/>
                        </g>
                        <g class="typst-text" transform="matrix(1 0 0 -1 254.23739999999992 75.26520000000001)"/>
                        <g class="typst-text" transform="matrix(1 0 0 -1 264.546 75.26520000000001)">
                            <use xlink:href="#gFD28607E30A3203B808DC19B25CE109A" x="7.452" y="0" fill="#000000" fill-rule="nonzero"/>
                        </g>
                        <g class="typst-text" transform="matrix(1 0 0 -1 284.60429999999997 75.26520000000001)"/>
                        <g class="typst-text" transform="matrix(1 0 0 -1 294.91290000000004 75.26520000000001)">
                            <use xlink:href="#gB5A1948AA76211B5A727B720A959DD67" x="0" y="0" fill="#000000" fill-rule="nonzero"/>
                            <use xlink:href="#g82C68831756F68AF1E2E08EF77D37A38" x="7.452" y="0" fill="#000000" fill-rule="nonzero"/>
                            <use xlink:href="#gB5A1948AA76211B5A727B720A959DD67" x="14.904" y="0" fill="#000000" fill-rule="nonzero"/>
                        </g>
                        <g class="typst-text" transform="matrix(1 0 0 -1 322.4232 75.26520000000001)"/>
                        <g class="typst-text" transform="matrix(1 0 0 -1 332.7318000000001 75.26520000000001)">
                            <use xlink:href="#gFD28607E30A3203B808DC19B25CE109A" x="7.452" y="0" fill="#000000" fill-rule="nonzero"/>
                        </g>
                        <g class="typst-text" transform="matrix(1 0 0 -1 352.79010000000005 75.26520000000001)"/>
                        <g class="typst-text" transform="matrix(1 0 0 -1 357.9444000000001 75.26520000000001)">
                            <use xlink:href="#g1FD6C48D4258677D87F65BD4C7067B7C" x="0" y="0" fill="#000000" fill-rule="nonzero"/>
                        </g>
                        <g class="typst-text" transform="matrix(1 0 0 -1 369.1569000000001 75.26520000000001)">
                            <use xlink:href="#g55265A794158D876ECE527A83B45F2F5" x="0" y="0" fill="#000000" fill-rule="nonzero"/>
                        </g>
                        <g class="typst-text" transform="matrix(1 0 0 -1 376.92285000000015 75.26520000000001)">
                            <use xlink:href="#g4D666FB2E302688B5A4F5EA1C2D9CAB6" x="0" y="0" fill="#000000" fill-rule="nonzero"/>
                            <use xlink:href="#g68974D19437D2956F5A8728A4531F573" x="7.452" y="0" fill="#000000" fill-rule="nonzero"/>
                            <use xlink:href="#g4A6A4EA0692ACB96D3E210986AAEF370" x="14.904" y="0" fill="#000000" fill-rule="nonzero"/>
                            <use xlink:href="#g5A05A1EAF291CE968A27C0771E5553EF" x="22.356" y="0" fill="#000000" fill-rule="nonzero"/>
                            <use xlink:href="#g320F1411D07D5E909CC1A7DC49627AC7" x="29.808" y="0" fill="#000000" fill-rule="nonzero"/>
                            <use xlink:href="#g4D666FB2E302688B5A4F5EA1C2D9CAB6" x="37.26" y="0" fill="#000000" fill-rule="nonzero"/>
                        </g>
                        <g class="typst-text" transform="matrix(1 0 0 -1 426.7891500000001 75.26520000000001)">
                            <use xlink:href="#gDC16F090CB9C4151F80E51675F2D2B3E" x="0" y="0" fill="#000000" fill-rule="nonzero"/>
                        </g>
                        <g class="typst-text" transform="matrix(1 0 0 -1 432.8283750000001 75.26520000000001)">
                            <use xlink:href="#g9F69203C21F4E869DAA7123A56237447" x="0" y="0" fill="#000000" fill-rule="nonzero"/>
                        </g>
                        <g class="typst-text" transform="matrix(1 0 0 -1 445.18627500000014 75.26520000000001)">
                            <use xlink:href="#g7BF41A02F62F7D1CCE2BFC36BBA94D86" x="0" y="0" fill="#000000" fill-rule="nonzero"/>
                        </g>
                    </g>
                </g>
                <g class="typst-group">
                    <g>
                        <g class="typst-text" transform="matrix(1 0 0 -1 130.93785 119.7288)">
                            <use xlink:href="#g37C507FFC0028A4AA5209F59FACC649E" x="0" y="0" fill="#000000" fill-rule="nonzero"/>
                        </g>
                        <g class="typst-text" transform="matrix(1 0 0 -1 158.5413 119.7288)">
                            <use xlink:href="#gB5A1948AA76211B5A727B720A959DD67" x="0" y="0" fill="#000000" fill-rule="nonzero"/>
                            <use xlink:href="#g69607993AB38FFF154BF11B3D60BBFDF" x="7.452" y="0" fill="#000000" fill-rule="nonzero"/>
                            <use xlink:href="#g69607993AB38FFF154BF11B3D60BBFDF" x="14.904" y="0" fill="#000000" fill-rule="nonzero"/>
                            <use xlink:href="#g82C68831756F68AF1E2E08EF77D37A38" x="22.356" y="0" fill="#000000" fill-rule="nonzero"/>
                            <use xlink:href="#gB5A1948AA76211B5A727B720A959DD67" x="29.808" y="0" fill="#000000" fill-rule="nonzero"/>
                        </g>
                        <g class="typst-text" transform="matrix(1 0 0 -1 200.9556 119.7288)"/>
                        <g class="typst-text" transform="matrix(1 0 0 -1 211.2642 119.7288)">
                            <use xlink:href="#gFD28607E30A3203B808DC19B25CE109A" x="7.452" y="0" fill="#000000" fill-rule="nonzero"/>
                        </g>
                        <g class="typst-text" transform="matrix(1 0 0 -1 231.32249999999996 119.7288)"/>
                        <g class="typst-text" transform="matrix(1 0 0 -1 236.47679999999997 119.7288)">
                            <use xlink:href="#g1FD6C48D4258677D87F65BD4C7067B7C" x="0" y="0" fill="#000000" fill-rule="nonzero"/>
                        </g>
                        <g class="typst-text" transform="matrix(1 0 0 -1 247.68929999999997 119.7288)">
                            <use xlink:href="#g55265A794158D876ECE527A83B45F2F5" x="0" y="0" fill="#000000" fill-rule="nonzero"/>
                        </g>
                        <g class="typst-text" transform="matrix(1 0 0 -1 255.45525 119.7288)">
                            <use xlink:href="#gB5A1948AA76211B5A727B720A959DD67" x="0" y="0" fill="#000000" fill-rule="nonzero"/>
                            <use xlink:href="#g69607993AB38FFF154BF11B3D60BBFDF" x="7.452" y="0" fill="#000000" fill-rule="nonzero"/>
                            <use xlink:href="#g82C68831756F68AF1E2E08EF77D37A38" x="14.904" y="0" fill="#000000" fill-rule="nonzero"/>
                            <use xlink:href="#g82C68831756F68AF1E2E08EF77D37A38" x="22.356" y="0" fill="#000000" fill-rule="nonzero"/>
                            <use xlink:href="#gB5A1948AA76211B5A727B720A959DD67" x="29.808" y="0" fill="#000000" fill-rule="nonzero"/>
                        </g>
                    </g>
                </g>
                <g class="typst-group">
                    <g>
                        <g class="typst-text" transform="matrix(1 0 0 -1 130.93785 159.31755)">
                            <use xlink:href="#g37C507FFC0028A4AA5209F59FACC649E" x="0" y="0" fill="#000000" fill-rule="nonzero"/>
                        </g>
                        <g class="typst-text" transform="matrix(1 0 0 -1 158.5413 159.31755)">
                            <use xlink:href="#gB5A1948AA76211B5A727B720A959DD67" x="0" y="0" fill="#000000" fill-rule="nonzero"/>
                            <use xlink:href="#g69607993AB38FFF154BF11B3D60BBFDF" x="7.452" y="0" fill="#000000" fill-rule="nonzero"/>
                            <use xlink:href="#g69607993AB38FFF154BF11B3D60BBFDF" x="14.904" y="0" fill="#000000" fill-rule="nonzero"/>
                            <use xlink:href="#g82C68831756F68AF1E2E08EF77D37A38" x="22.356" y="0" fill="#000000" fill-rule="nonzero"/>
                            <use xlink:href="#g69607993AB38FFF154BF11B3D60BBFDF" x="29.808" y="0" fill="#000000" fill-rule="nonzero"/>
                            <use xlink:href="#g82C68831756F68AF1E2E08EF77D37A38" x="37.26" y="0" fill="#000000" fill-rule="nonzero"/>
                            <use xlink:href="#g82C68831756F68AF1E2E08EF77D37A38" x="44.711999999999996" y="0" fill="#000000" fill-rule="nonzero"/>
                            <use xlink:href="#g69607993AB38FFF154BF11B3D60BBFDF" x="52.163999999999994" y="0" fill="#000000" fill-rule="nonzero"/>
                            <use xlink:href="#g82C68831756F68AF1E2E08EF77D37A38" x="59.61599999999999" y="0" fill="#000000" fill-rule="nonzero"/>
                            <use xlink:href="#g82C68831756F68AF1E2E08EF77D37A38" x="67.068" y="0" fill="#000000" fill-rule="nonzero"/>
                            <use xlink:href="#gB5A1948AA76211B5A727B720A959DD67" x="74.52" y="0" fill="#000000" fill-rule="nonzero"/>
                        </g>
                    </g>
                </g>
            </g>
        </g>
    </g>
    <defs id="glyph">
        <symbol id="g4D666FB2E302688B5A4F5EA1C2D9CAB6" overflow="visible">
            <path d="M 0 0m 3.7259998 -0.124199994 q -1.2047398 0 -1.9437299 0.72656995 q -0.73898995 0.72656995 -0.73898995 2.0058298 v 1.6146 q 0 1.2792602 0.73898995 2.0058298 q 0.73899007 0.7265701 1.9437299 0.7265701 q 0.8073001 0 1.4096699 -0.32291985 q 0.60237026 -0.32292032 0.9377103 -0.9066601 q 0.33534002 -0.58373976 0.33534002 -1.3786201 v -1.2171597 h -4.27248 v -0.6458399 q 0 -0.75762 0.4347 -1.19853 q 0.43469977 -0.44091004 1.1550598 -0.44091004 q 0.6209998 0 1.0246501 0.24218994 q 0.4036498 0.24219 0.4905901 0.65205 h 1.1177998 q -0.11178017 -0.85697997 -0.83213997 -1.3599899 q -0.7203598 -0.50301 -1.8009 -0.50301 Z m -1.5897598 4.12344 h 3.1795197 v 0.34775972 q 0 0.8073001 -0.41606998 1.24821 q -0.41606998 0.44091034 -1.1736898 0.44091034 q -0.75761986 0 -1.1736898 -0.44091034 q -0.41606998 -0.44090986 -0.41606998 -1.24821 v -0.34775972 Z "/>
        </symbol>
        <symbol id="g68974D19437D2956F5A8728A4531F573" overflow="visible">
            <path d="M 0 0m 1.14264 0 v 6.831 h 1.1177999 v -1.3041 h 0.012419939 q 0.08694005 0.68309975 0.5589001 1.0556998 q 0.47196007 0.37260008 1.2544198 0.37260008 q 1.03086 0 1.6394401 -0.63342 q 0.6085801 -0.63342 0.6085801 -1.7263799 v -4.5954 h -1.1178002 v 4.39668 q 0 0.78245974 -0.39122963 1.1985297 q -0.3912301 0.41606998 -1.0619102 0.41606998 q -0.6955199 0 -1.09917 -0.43469954 q -0.40365005 -0.4347 -0.40365005 -1.2295804 v -4.3469996 h -1.1177999 Z "/>
        </symbol>
        <symbol id="g4A6A4EA0692ACB96D3E210986AAEF370" overflow="visible">
            <path d="M 0 0m 3.8253598 -0.124199994 q -1.2419999 0 -1.9871999 0.69552 q -0.7451999 0.69552 -0.7451999 1.9126799 v 1.8629997 q 0 1.2171602 0.7451999 1.9126801 q 0.74520004 0.6955199 1.9871999 0.6955199 q 1.1799002 0 1.9064698 -0.63342 q 0.7265701 -0.63342 0.7638302 -1.7263799 h -1.1178002 q -0.03725958 0.65825987 -0.4471197 1.0122299 q -0.40986013 0.35397005 -1.10538 0.35397005 q -0.73278 0 -1.1736898 -0.41606998 q -0.4409101 -0.41606998 -0.4409101 -1.18611 v -1.8754199 q 0 -0.77004004 0.4409101 -1.19232 q 0.44090986 -0.42228 1.1736898 -0.42228 q 0.6955199 0 1.10538 0.36017996 q 0.40986013 0.36018002 0.4471197 1.0060201 h 1.1178002 q -0.037260056 -1.09296 -0.7638302 -1.72638 q -0.72656965 -0.63342 -1.9064698 -0.63342 Z "/>
        </symbol>
        <symbol id="g5A05A1EAF291CE968A27C0771E5553EF" overflow="visible">
            <path d="M 0 0m 3.7259998 -0.09936 q -1.2295799 0 -1.9561499 0.72036 q -0.7265699 0.72036 -0.7265699 2.01204 v 1.56492 q 0 1.3041 0.7203599 2.01825 q 0.72036004 0.71414995 1.9623599 0.71414995 q 1.2420001 0 1.9623599 -0.71414995 q 0.7203603 -0.71414995 0.7203603 -2.01825 v -1.56492 q 0 -1.29168 -0.7265701 -2.01204 q -0.7265701 -0.72036 -1.95615 -0.72036 Z m 0 0.99359995 q 0.73278 0 1.14885 0.40985996 q 0.41606998 0.40986001 0.41606998 1.2047399 v 1.8133199 q 0 0.7948799 -0.41606998 1.20474 q -0.41606998 0.40986013 -1.14885 0.40986013 q -0.72036004 0 -1.1426399 -0.40986013 q -0.42228007 -0.40986013 -0.42228007 -1.20474 v -1.8133199 q 0 -0.7948799 0.42228007 -1.2047399 q 0.42227983 -0.40985996 1.1426399 -0.40985996 Z "/>
        </symbol>
        <symbol id="g320F1411D07D5E909CC1A7DC49627AC7" overflow="visible">
            <path d="M 0 0m 3.3285599 -0.124199994 q -1.01844 0 -1.63323 0.6831 q -0.61478996 0.6831 -0.61478996 1.8505799 v 1.9996202 q 0 1.1798997 0.60858 1.8629999 q 0.60858 0.68309975 1.63944 0.68309975 q 0.77004004 0 1.2730498 -0.38501978 q 0.5030103 -0.38502026 0.60237026 -1.0432801 h 0.012419701 l -0.024839878 1.5524998 v 1.9872003 h 1.1177998 v -9.0666 h -1.1177998 v 1.3040999 h -0.012420177 q -0.08693981 -0.6706799 -0.58373976 -1.04949 q -0.49679995 -0.37881 -1.26684 -0.37881 Z m 0.37260008 0.96875995 q 0.6955199 0 1.0929599 0.43469995 q 0.39743996 0.4347 0.39743996 1.20474 v 1.8629997 q 0 0.77004004 -0.39743996 1.20474 q -0.39743996 0.4347 -1.0929599 0.4347 q -0.7079401 0 -1.10538 -0.36638975 q -0.39743996 -0.36639023 -0.39743996 -1.2109499 v -1.9872 q 0 -0.8321401 0.39743996 -1.20474 q 0.39743996 -0.37260002 1.10538 -0.37260002 Z "/>
        </symbol>
        <symbol id="gDC16F090CB9C4151F80E51675F2D2B3E" overflow="visible">
            <path d="M 0 0m 4.93695 -3.8502 c 0.13972473 0 0.21735 0.0776248 0.21735 0.21735 c 0 0.04657483 -0.031050205 0.108675 -0.077625275 0.17077494 c -0.8073001 0.62100005 -1.4593499 1.64565 -1.940625 3.058425 c -0.4191749 1.226475 -0.6365249 2.4374251 -0.6365249 3.6328502 v 1.3040998 c 0 1.195425 0.21735 2.406375 0.6365249 3.6328502 c 0.48127508 1.412775 1.1333249 2.4374247 1.940625 3.058425 c 0.04657507 0.046575546 0.077625275 0.108675 0.077625275 0.17077541 c 0 0.13972473 -0.077625275 0.21735 -0.21735 0.21735 c -0.015525341 0 -0.062099934 -0.015524864 -0.108675 -0.046575546 c -0.9315002 -0.7141495 -1.7077501 -1.7698498 -2.3442752 -3.1826248 c -0.60547495 -1.3506751 -0.915975 -2.623725 -0.915975 -3.8502002 v -1.3040998 c 0 -1.226475 0.31050003 -2.499525 0.915975 -3.8502002 c 0.63652515 -1.412775 1.412775 -2.4684749 2.3442752 -3.182625 c 0.04657507 -0.031049967 0.09314966 -0.04657483 0.108675 -0.04657483 Z "/>
        </symbol>
        <symbol id="g7BF41A02F62F7D1CCE2BFC36BBA94D86" overflow="visible">
            <path d="M 0 0m 1.21095 -3.803625 c 0.9315001 0.7141502 1.70775 1.76985 2.344275 3.182625 c 0.6054747 1.350675 0.91597486 2.6237252 0.91597486 3.8502002 v 1.3040998 c 0 1.2264752 -0.31050014 2.499525 -0.91597486 3.8502002 c -0.63652515 1.412775 -1.412775 2.4684753 -2.344275 3.1826248 c -0.04657495 0.031050682 -0.09315002 0.046575546 -0.108675 0.046575546 c -0.13972503 0 -0.21735 -0.077625275 -0.21735 -0.21735 c 0 -0.06210041 0.031050026 -0.12419987 0.07762498 -0.17077541 c 0.80730003 -0.6210003 1.4593501 -1.6456499 1.9406252 -3.058425 c 0.4191749 -1.2264752 0.6365249 -2.4374251 0.6365249 -3.6328502 v -1.3040998 c 0 -1.195425 -0.21735 -2.4063752 -0.6365249 -3.6328502 c -0.48127508 -1.4127749 -1.1333251 -2.437425 -1.9406252 -3.058425 c -0.04657495 -0.062099934 -0.07762498 -0.124200106 -0.07762498 -0.17077494 c 0 -0.13972521 0.07762498 -0.21735 0.21735 -0.21735 c 0.015524983 0 0.062100053 0.015524864 0.108675 0.04657483 Z "/>
        </symbol>
        <symbol id="g37C507FFC0028A4AA5209F59FACC649E" overflow="visible">
            <path d="M 0 0m 10.836451 5.697675 h -9.594451 c -0.24839997 0 -0.37259996 -0.124200344 -0.37259996 -0.3570752 c 0 -0.23287487 0.12419999 -0.35707474 0.37259996 -0.35707474 h 9.594451 c 0.24839973 0 0.3725996 0.12419987 0.3725996 0.35707474 c 0 0.18630028 -0.17077541 0.3570752 -0.3725996 0.3570752 Z m 0 -2.9187002 h -9.594451 c -0.24839997 0 -0.37259996 -0.12419987 -0.37259996 -0.35707498 c 0 -0.23287511 0.12419999 -0.35707498 0.37259996 -0.35707498 h 9.594451 c 0.24839973 0 0.3725996 0.12419987 0.3725996 0.35707498 c 0 0.2018249 -0.17077541 0.35707498 -0.3725996 0.35707498 Z "/>
        </symbol>
        <symbol id="gB5A1948AA76211B5A727B720A959DD67" overflow="visible">
            <path d="M 0 0m 1.87542 5.3406 l -0.09935999 3.7259998 h 1.2668399 l -0.08694005 -3.7259998 h -1.0805398 Z m 2.63304 0 l -0.09935999 3.7259998 h 1.26684 l -0.08694029 -3.7259998 h -1.0805397 Z "/>
        </symbol>
        <symbol id="g69607993AB38FFF154BF11B3D60BBFDF" overflow="visible">
            <path d="M 0 0m 1.1178 0 v 1.01844 h 2.4591599 v 7.079399 l -2.4591599 -1.8381596 v 1.2792602 l 2.0493 1.5276599 h 1.5276599 v -8.04816 h 2.0120401 v -1.01844 h -5.5889997 Z "/>
        </symbol>
        <symbol id="gFD28607E30A3203B808DC19B25CE109A" overflow="visible">
            <path d="M 0 0m -3.5893798 1.1798999 v 2.4219 h -2.37222 v 0.9935999 h 2.37222 v 2.4218998 h 1.0929599 v -2.4218998 h 4.99284 v 2.4218998 h 1.0929599 v -2.4218998 h 2.37222 v -0.9935999 h -2.37222 v -2.4219 h -1.0929599 v 2.4219 h -4.99284 v -2.4219 h -1.0929599 Z "/>
        </symbol>
        <symbol id="g9F69203C21F4E869DAA7123A56237447" overflow="visible">
            <path d="M 0 0m 6.17895 -1.4283 c 1.4748755 0 2.7324004 0.52785003 3.75705 1.5525 c 1.0246506 1.02465 1.5525007 2.2821748 1.5525007 3.75705 c 0 0.8538749 -0.06210041 1.4748747 -0.20182514 1.8474748 c -0.18630028 0.5588999 -0.63652515 1.195425 -1.3506756 1.909575 c -1.0401745 1.0401754 -2.2821746 1.5524998 -3.75705 1.5524998 c -1.474875 0 -2.7323997 -0.5278492 -3.7570498 -1.5524998 c -1.02465 -1.0246501 -1.5525 -2.282175 -1.5525 -3.7570498 c 0 -1.4748752 0.52785003 -2.7324002 1.5525 -3.75705 c 1.0246501 -1.02465 2.2821748 -1.5525 3.7570498 -1.5525 Z m 0 9.889425 c 1.2730503 0 2.3597999 -0.45022488 3.2447257 -1.3351502 c 0.8849249 -0.8849249 1.3351498 -1.9716749 1.3351498 -3.244725 c 0 -0.72967505 -0.06210041 -1.2575252 -0.17077541 -1.5835502 c -0.17077446 -0.48127496 -0.5588999 -1.040175 -1.1799002 -1.6456499 c -0.8849249 -0.90045 -1.9716744 -1.3506751 -3.2292 -1.3506751 c -1.2730498 0 -2.3597999 0.45022503 -3.2447248 1.33515 c -0.8849251 0.884925 -1.3351501 1.971675 -1.3351501 3.2447252 c 0 1.2730501 0.450225 2.3598 1.3351501 3.244725 c 0.8849249 0.88492537 1.9716749 1.3351502 3.2447248 1.3351502 Z "/>
        </symbol>
        <symbol id="g82C68831756F68AF1E2E08EF77D37A38" overflow="visible">
            <path d="M 0 0m 3.7259998 -0.124199994 q -1.2544198 0 -1.9934099 0.72656995 q -0.73899 0.72656995 -0.73899 1.9437299 v 3.9743998 q 0 1.2171602 0.73899 1.9437299 q 0.73899007 0.7265701 1.9934099 0.7265701 q 1.2544198 0 1.9934101 -0.7265701 q 0.73898983 -0.72656965 0.73898983 -1.9437299 v -3.9743998 q 0 -0.8073 -0.33534002 -1.40967 q -0.33534002 -0.6023699 -0.95013 -0.9314999 q -0.61478996 -0.32913 -1.4469299 -0.32913 Z m 0 0.95633996 q 0.74520016 0 1.1985302 0.47817004 q 0.45332956 0.47816992 0.45332956 1.2357899 v 3.9743998 q 0 0.75761986 -0.45332956 1.2357903 q -0.45333004 0.47816992 -1.1985302 0.47816992 q -0.7451999 0 -1.19853 -0.47816992 q -0.45333004 -0.4781704 -0.45333004 -1.2357903 v -3.9743998 q 0 -0.75762 0.45333004 -1.2357899 q 0.45333004 -0.47817004 1.19853 -0.47817004 Z m 0 3.01806 q -0.33534002 0 -0.54026985 0.18630004 q -0.20493007 0.1862998 -0.20493007 0.53406 q 0 0.33534002 0.20493007 0.51543 q 0.20492983 0.18008995 0.54026985 0.18008995 q 0.33534002 0 0.54026985 -0.18008995 q 0.2049303 -0.18008995 0.2049303 -0.51543 q 0 -0.3477602 -0.2049303 -0.53406 q -0.20492983 -0.18630004 -0.54026985 -0.18630004 Z "/>
        </symbol>
        <symbol id="g1FD6C48D4258677D87F65BD4C7067B7C" overflow="visible">
            <path d="M 0 0m 3.679425 10.33965 c -0.791775 0 -1.4593499 -0.27945042 -2.0337749 -0.8383503 c -0.574425 -0.5588999 -0.8694 -1.2109499 -0.8694 -2.0027246 c 0 -0.52785015 0.38812506 -0.9159751 0.8694 -0.9159751 c 0.4657501 0 0.85387504 0.4036498 0.85387504 0.8694 c 0 0.5123248 -0.37260008 0.86939955 -0.8694 0.86939955 c -0.04657507 0 -0.077625036 0 -0.108675 -0.015524864 c 0.29497492 0.760725 0.978075 1.4282999 1.95615 1.4282999 c 1.2730498 0 1.9871998 -1.1022749 1.9871998 -2.4374247 c 0 -1.040175 -0.5278497 -2.1579752 -1.5835497 -3.3378751 l -2.9187002 -3.2912998 c -0.20182496 -0.23287499 -0.18629998 -0.21735 -0.18629998 -0.667575 h 5.759775 l 0.45022488 2.7945 h -0.5123248 c -0.12419987 -0.791775 -0.23287487 -1.2420001 -0.326025 -1.3817251 c -0.077625275 -0.077625036 -0.543375 -0.108675 -1.3972502 -0.108675 h -2.592675 l 1.5059252 1.474875 c 1.0557001 0.99360013 2.3908498 2.064825 2.8410747 2.88765 c 0.31050014 0.543375 0.46575022 1.08675 0.46575022 1.630125 c 0 1.8319502 -1.4282999 3.0429 -3.2913 3.0429 Z "/>
        </symbol>
        <symbol id="g55265A794158D876ECE527A83B45F2F5" overflow="visible">
            <path d="M 0 0m 2.9808002 3.8812501 c 0 0.4502251 -0.37260008 0.8228247 -0.8228252 0.8228247 c -0.450225 0 -0.82282495 -0.3725996 -0.82282495 -0.8228247 c 0 -0.4502251 0.37259996 -0.8228252 0.82282495 -0.8228252 c 0.4502251 0 0.8228252 0.37260008 0.8228252 0.8228252 Z "/>
        </symbol>
    </defs>
</svg>
