<svg class="typst-doc" viewBox="0 0 52.4832 39.6" width="52.4832pt" height="39.6pt" xmlns="http://www.w3.org/2000/svg" xmlns:xlink="http://www.w3.org/1999/xlink" xmlns:h5="http://www.w3.org/1999/xhtml">
    <path class="typst-shape" fill="#00000000" fill-rule="nonzero" d="M 0 0 L 0 39.6 L 52.4832 39.6 L 52.4832 0 Z "/>
    <g>
        <g transform="translate(1.3199999999999998 6.6)">
            <g class="typst-group">
                <g>
                    <g transform="translate(0 0)">
                        <g class="typst-group">
                            <g>
                                <g transform="translate(0 0)">
                                    <g class="typst-group">
                                        <g>
                                            <g transform="translate(9.088167989373424 8.924375784070346)">
                                                <path class="typst-shape" fill="none" stroke="#000000" stroke-width="0.6335999999999999" stroke-linecap="round" stroke-linejoin="miter" stroke-miterlimit="4" d="M 12.025264 0 C 12.025264 0 0 11.508048 0 11.508048 "/>
                                            </g>
                                            <g transform="translate(28.72976794485663 8.924375684761204)">
                                                <path class="typst-shape" fill="none" stroke="#000000" stroke-width="0.6335999999999999" stroke-linecap="round" stroke-linejoin="miter" stroke-miterlimit="4" d="M 0 0 C 0 0 12.025264 11.508048 12.025264 11.508048 "/>
                                            </g>
                                            <g transform="translate(19.6416 0)">
                                                <path class="typst-shape" fill="none" stroke="#000000" stroke-width="0.8" stroke-linecap="butt" stroke-linejoin="miter" stroke-miterlimit="4" d="M 5.28 0 C 2.3665805 0 0 2.3665805 0 5.28 C 0 5.28 0 5.28 0 5.28 C 0 8.193419 2.3665805 10.56 5.28 10.56 C 5.28 10.56 5.28 10.56 5.28 10.56 C 8.193419 10.56 10.56 8.193419 10.56 5.28 C 10.56 5.28 10.56 5.28 10.56 5.28 C 10.56 2.3665805 8.193419 0 5.28 0 C 5.28 0 5.28 0 5.28 0 Z "/>
                                            </g>
                                            <g transform="translate(0 18.796799905511808)">
                                                <path class="typst-shape" fill="none" stroke="#000000" stroke-width="0.8" stroke-linecap="butt" stroke-linejoin="miter" stroke-miterlimit="4" d="M 5.28 0 C 2.3665805 0 0 2.3665805 0 5.28 C 0 5.28 0 5.28 0 5.28 C 0 8.193419 2.3665805 10.56 5.28 10.56 C 5.28 10.56 5.28 10.56 5.28 10.56 C 8.193419 10.56 10.56 8.193419 10.56 5.28 C 10.56 5.28 10.56 5.28 10.56 5.28 C 10.56 2.3665805 8.193419 0 5.28 0 C 5.28 0 5.28 0 5.28 0 Z "/>
                                            </g>
                                            <g transform="translate(39.2832 18.796799905511808)">
                                                <path class="typst-shape" fill="none" stroke="#000000" stroke-width="0.8" stroke-linecap="butt" stroke-linejoin="miter" stroke-miterlimit="4" d="M 5.28 0 C 2.3665805 0 0 2.3665805 0 5.28 C 0 5.28 0 5.28 0 5.28 C 0 8.193419 2.3665805 10.56 5.28 10.56 C 5.28 10.56 5.28 10.56 5.28 10.56 C 8.193419 10.56 10.56 8.193419 10.56 5.28 C 10.56 5.28 10.56 5.28 10.56 5.28 C 10.56 2.3665805 8.193419 0 5.28 0 C 5.28 0 5.28 0 5.28 0 Z "/>
                                            </g>
                                        </g>
                                    </g>
                                </g>
                            </g>
                        </g>
                    </g>
                </g>
            </g>
        </g>
    </g>
</svg>
