<svg class="typst-doc" viewBox="0 0 370.20915000005004 396.5706" width="370.20915000005004pt" height="396.5706pt" xmlns="http://www.w3.org/2000/svg" xmlns:xlink="http://www.w3.org/1999/xlink" xmlns:h5="http://www.w3.org/1999/xhtml">
    <path class="typst-shape" fill="#00000000" fill-rule="nonzero" d="M 0 0v 396.5706 h 370.20914 v -396.5706 Z "/>
    <g>
        <g class="typst-group" transform="matrix(1 0 0 1 7.7625 7.7625)">
            <g>
                <g class="typst-group">
                    <g>
                        <path class="typst-shape" fill="none" stroke="#000000" stroke-width="0.7452" stroke-linecap="round" stroke-linejoin="miter" stroke-miterlimit="4" transform="matrix(1 0 0 1 33.70116699000032 10.599966990000585)" d="M 0 0m 14.321266 0 l -14.321266 14.321266 "/>
                        <path class="typst-shape" fill="none" stroke="#000000" stroke-width="0.7452" stroke-linecap="round" stroke-linejoin="miter" stroke-miterlimit="4" transform="matrix(1 0 0 1 10.59996699000001 33.701166989999884)" d="M 0 0m 14.321266 0 l -14.321266 14.321266 "/>
                        <path class="typst-shape" fill="none" stroke="#000000" stroke-width="0.7452" stroke-linecap="round" stroke-linejoin="miter" stroke-miterlimit="4" transform="matrix(1 0 0 1 10.621873496574556 96.89343399661179)" d="M 0 0m 14.277453 0 l -14.277453 14.123932 "/>
                        <path class="typst-shape" fill="none" stroke="#000000" stroke-width="0.7452" stroke-linecap="round" stroke-linejoin="miter" stroke-miterlimit="4" transform="matrix(1 0 0 1 10.58730053597151 119.78263440982089)" d="M 0 0l 14.346599 14.423731 "/>
                        <path class="typst-shape" fill="none" stroke="#000000" stroke-width="0.7452" stroke-linecap="round" stroke-linejoin="miter" stroke-miterlimit="4" transform="matrix(1 0 0 1 33.70116698999992 183.85896699000006)" d="M 0 0l 14.321266 14.321266 "/>
                        <path class="typst-shape" fill="none" stroke="#000000" stroke-width="0.7452" stroke-linecap="round" stroke-linejoin="miter" stroke-miterlimit="4" transform="matrix(1 0 0 1 33.70116699000071 206.96016699000066)" d="M 0 0m 14.321266 0 l -14.321266 14.321266 "/>
                        <path class="typst-shape" fill="none" stroke="#000000" stroke-width="0.7452" stroke-linecap="round" stroke-linejoin="miter" stroke-miterlimit="4" transform="matrix(1 0 0 1 10.62187349657452 270.1524339966113)" d="M 0 0l 14.277453 14.123932 "/>
                        <path class="typst-shape" fill="none" stroke="#000000" stroke-width="0.7452" stroke-linecap="round" stroke-linejoin="miter" stroke-miterlimit="4" transform="matrix(1 0 0 1 33.68850053597204 293.0416344098213)" d="M 0 0l 14.346599 14.423731 "/>
                        <path class="typst-shape" fill="none" stroke="#000000" stroke-width="0.7452" stroke-linecap="round" stroke-linejoin="miter" stroke-miterlimit="4" transform="matrix(1 0 0 1 10.688924748674523 357.0142828240005)" d="M 0 0m 14.143351 0 l -14.143351 13.535034 "/>
                        <path class="typst-shape" fill="none" stroke="#000000" stroke-width="0.7452" stroke-linecap="round" stroke-linejoin="miter" stroke-miterlimit="4" transform="matrix(1 0 0 1 33.7901247486747 357.01428282400053)" d="M 0 0l 14.143351 13.535034 "/>
                        <path class="typst-shape" fill="none" stroke="#000000" stroke-width="0.8" stroke-linecap="butt" stroke-linejoin="miter" stroke-miterlimit="4" transform="matrix(1 0 0 1 46.2024 0)" d="M 0 0m 6.21 0 c -3.4265788 0 -6.21 2.7834213 -6.21 6.21 c 0 3.4265785 2.7834213 6.21 6.21 6.21 c 3.4265785 0 6.21 -2.7834215 6.21 -6.21 c 0 -3.4265788 -2.7834215 -6.21 -6.21 -6.21 Z "/>
                        <path class="typst-shape" fill="none" stroke="#000000" stroke-width="0.8" stroke-linecap="butt" stroke-linejoin="miter" stroke-miterlimit="4" transform="matrix(1 0 0 1 23.101200000000002 23.1012)" d="M 0 0m 6.21 0 c -3.4265788 0 -6.21 2.7834213 -6.21 6.21 c 0 3.4265785 2.7834213 6.21 6.21 6.21 c 3.4265785 0 6.21 -2.7834215 6.21 -6.21 c 0 -3.4265788 -2.7834215 -6.21 -6.21 -6.21 Z "/>
                        <path class="typst-shape" fill="none" stroke="#000000" stroke-width="0.8" stroke-linecap="butt" stroke-linejoin="miter" stroke-miterlimit="4" transform="matrix(1 0 0 1 0 46.2024)" d="M 0 0m 6.21 0 c -3.4265788 0 -6.21 2.7834213 -6.21 6.21 c 0 3.4265785 2.7834213 6.21 6.21 6.21 c 3.4265785 0 6.21 -2.7834215 6.21 -6.21 c 0 -3.4265788 -2.7834215 -6.21 -6.21 -6.21 Z "/>
                        <path class="typst-shape" fill="none" transform="matrix(1 0 0 1 105.19739999995002 24.638175000000096)" d="M 0 0h 249.48676 v 9.34605 h -249.48676 v -9.34605 Z "/>
                        <g class="typst-group">
                            <g>
                                <g class="typst-group" transform="matrix(1 0 0 1 105.19739992913387 24.63817492913396)">
                                    <g>
                                        <g class="typst-group">
                                            <g>
                                                <g class="typst-group">
                                                    <g>
                                                        <g class="typst-text" transform="matrix(1 0 0 -1 0.00000000005000072447069752 9.974812500000002)">
                                                            <use xlink:href="#g203EE2CE83BAC229D6042FFC224E2E4F" x="0" y="0" fill="#000000" fill-rule="nonzero"/>
                                                        </g>
                                                        <g class="typst-text" transform="matrix(1 0 0 -1 15.525000000050001 9.974812500000002)"/>
                                                        <g class="typst-text" transform="matrix(1 0 0 -1 65.98125000005 9.974812500000002)">
                                                            <use xlink:href="#g69607993AB38FFF154BF11B3D60BBFDF" x="0" y="0" fill="#000000" fill-rule="nonzero"/>
                                                            <use xlink:href="#g69607993AB38FFF154BF11B3D60BBFDF" x="7.452" y="0" fill="#000000" fill-rule="nonzero"/>
                                                            <use xlink:href="#g69607993AB38FFF154BF11B3D60BBFDF" x="14.904" y="0" fill="#000000" fill-rule="nonzero"/>
                                                            <use xlink:href="#g82C68831756F68AF1E2E08EF77D37A38" x="22.356" y="0" fill="#000000" fill-rule="nonzero"/>
                                                            <use xlink:href="#g82C68831756F68AF1E2E08EF77D37A38" x="29.808" y="0" fill="#000000" fill-rule="nonzero"/>
                                                            <use xlink:href="#g82C68831756F68AF1E2E08EF77D37A38" x="37.26" y="0" fill="#000000" fill-rule="nonzero"/>
                                                        </g>
                                                        <g class="typst-text" transform="matrix(1 0 0 -1 110.69325000005 9.974812500000002)"/>
                                                        <g class="typst-text" transform="matrix(1 0 0 -1 161.14950000005 9.974812500000002)">
                                                            <use xlink:href="#g203EE2CE83BAC229D6042FFC224E2E4F" x="0" y="0" fill="#000000" fill-rule="nonzero"/>
                                                        </g>
                                                        <g class="typst-text" transform="matrix(1 0 0 -1 176.67450000004996 9.974812500000002)"/>
                                                        <g class="typst-text" transform="matrix(1 0 0 -1 227.13075000005003 9.974812500000002)">
                                                            <use xlink:href="#g648E3B98CC6171252EE66407D18C3F0E" x="0" y="0" fill="#000000" fill-rule="nonzero"/>
                                                            <use xlink:href="#g228584A3399C8212A65C3D96209DDE0" x="7.452" y="0" fill="#000000" fill-rule="nonzero"/>
                                                            <use xlink:href="#g69607993AB38FFF154BF11B3D60BBFDF" x="14.904" y="0" fill="#000000" fill-rule="nonzero"/>
                                                        </g>
                                                    </g>
                                                </g>
                                            </g>
                                        </g>
                                    </g>
                                </g>
                            </g>
                        </g>
                        <path class="typst-shape" fill="none" stroke="#000000" stroke-width="0.8" stroke-linecap="butt" stroke-linejoin="miter" stroke-miterlimit="4" transform="matrix(1 0 0 1 23.101200000000002 86.31900000000002)" d="M 0 0m 6.21 0 c -3.4265788 0 -6.21 2.7834213 -6.21 6.21 c 0 3.4265785 2.7834213 6.21 6.21 6.21 c 3.4265785 0 6.21 -2.7834215 6.21 -6.21 c 0 -3.4265788 -2.7834215 -6.21 -6.21 -6.21 Z "/>
                        <path class="typst-shape" fill="none" stroke="#000000" stroke-width="0.8" stroke-linecap="butt" stroke-linejoin="miter" stroke-miterlimit="4" transform="matrix(1 0 0 1 0 109.17180000000002)" d="M 0 0m 6.21 0 c -3.4265788 0 -6.21 2.7834213 -6.21 6.21 c 0 3.4265785 2.7834213 6.21 6.21 6.21 c 3.4265785 0 6.21 -2.7834215 6.21 -6.21 c 0 -3.4265788 -2.7834215 -6.21 -6.21 -6.21 Z "/>
                        <path class="typst-shape" fill="none" stroke="#000000" stroke-width="0.8" stroke-linecap="butt" stroke-linejoin="miter" stroke-miterlimit="4" transform="matrix(1 0 0 1 23.101200000000002 132.39720000000003)" d="M 0 0m 6.21 0 c -3.4265788 0 -6.21 2.7834213 -6.21 6.21 c 0 3.4265785 2.7834213 6.21 6.21 6.21 c 3.4265785 0 6.21 -2.7834215 6.21 -6.21 c 0 -3.4265788 -2.7834215 -6.21 -6.21 -6.21 Z "/>
                        <path class="typst-shape" fill="none" transform="matrix(1 0 0 1 105.19739999995002 110.70877500000007)" d="M 0 0h 249.48676 v 9.34605 h -249.48676 v -9.34605 Z "/>
                        <g class="typst-group">
                            <g>
                                <g class="typst-group" transform="matrix(1 0 0 1 105.19739992913387 110.70877492913392)">
                                    <g>
                                        <g class="typst-group">
                                            <g>
                                                <g class="typst-group">
                                                    <g>
                                                        <g class="typst-text" transform="matrix(1 0 0 -1 0.00000000005000072447069752 9.974812500000002)">
                                                            <use xlink:href="#g203EE2CE83BAC229D6042FFC224E2E4F" x="0" y="0" fill="#000000" fill-rule="nonzero"/>
                                                        </g>
                                                        <g class="typst-text" transform="matrix(1 0 0 -1 15.525000000050001 9.974812500000002)"/>
                                                        <g class="typst-text" transform="matrix(1 0 0 -1 65.98125000005 9.974812500000002)">
                                                            <use xlink:href="#g69607993AB38FFF154BF11B3D60BBFDF" x="0" y="0" fill="#000000" fill-rule="nonzero"/>
                                                            <use xlink:href="#g69607993AB38FFF154BF11B3D60BBFDF" x="7.452" y="0" fill="#000000" fill-rule="nonzero"/>
                                                            <use xlink:href="#g82C68831756F68AF1E2E08EF77D37A38" x="14.904" y="0" fill="#000000" fill-rule="nonzero"/>
                                                            <use xlink:href="#g69607993AB38FFF154BF11B3D60BBFDF" x="22.356" y="0" fill="#000000" fill-rule="nonzero"/>
                                                            <use xlink:href="#g82C68831756F68AF1E2E08EF77D37A38" x="29.808" y="0" fill="#000000" fill-rule="nonzero"/>
                                                            <use xlink:href="#g82C68831756F68AF1E2E08EF77D37A38" x="37.26" y="0" fill="#000000" fill-rule="nonzero"/>
                                                        </g>
                                                        <g class="typst-text" transform="matrix(1 0 0 -1 110.69325000005 9.974812500000002)"/>
                                                        <g class="typst-text" transform="matrix(1 0 0 -1 161.14950000005 9.974812500000002)">
                                                            <use xlink:href="#g203EE2CE83BAC229D6042FFC224E2E4F" x="0" y="0" fill="#000000" fill-rule="nonzero"/>
                                                        </g>
                                                        <g class="typst-text" transform="matrix(1 0 0 -1 176.67450000004996 9.974812500000002)"/>
                                                        <g class="typst-text" transform="matrix(1 0 0 -1 227.13075000005003 9.974812500000002)">
                                                            <use xlink:href="#g228584A3399C8212A65C3D96209DDE0" x="0" y="0" fill="#000000" fill-rule="nonzero"/>
                                                            <use xlink:href="#g648E3B98CC6171252EE66407D18C3F0E" x="7.452" y="0" fill="#000000" fill-rule="nonzero"/>
                                                            <use xlink:href="#g69607993AB38FFF154BF11B3D60BBFDF" x="14.904" y="0" fill="#000000" fill-rule="nonzero"/>
                                                        </g>
                                                    </g>
                                                </g>
                                            </g>
                                        </g>
                                    </g>
                                </g>
                            </g>
                        </g>
                        <path class="typst-shape" fill="none" stroke="#000000" stroke-width="0.8" stroke-linecap="butt" stroke-linejoin="miter" stroke-miterlimit="4" transform="matrix(1 0 0 1 23.101200000000002 173.25900000000004)" d="M 0 0m 6.21 0 c -3.4265788 0 -6.21 2.7834213 -6.21 6.21 c 0 3.4265785 2.7834213 6.21 6.21 6.21 c 3.4265785 0 6.21 -2.7834215 6.21 -6.21 c 0 -3.4265788 -2.7834215 -6.21 -6.21 -6.21 Z "/>
                        <path class="typst-shape" fill="none" stroke="#000000" stroke-width="0.8" stroke-linecap="butt" stroke-linejoin="miter" stroke-miterlimit="4" transform="matrix(1 0 0 1 46.2024 196.36020000000002)" d="M 0 0m 6.21 0 c -3.4265788 0 -6.21 2.7834213 -6.21 6.21 c 0 3.4265785 2.7834213 6.21 6.21 6.21 c 3.4265785 0 6.21 -2.7834215 6.21 -6.21 c 0 -3.4265788 -2.7834215 -6.21 -6.21 -6.21 Z "/>
                        <path class="typst-shape" fill="none" stroke="#000000" stroke-width="0.8" stroke-linecap="butt" stroke-linejoin="miter" stroke-miterlimit="4" transform="matrix(1 0 0 1 23.101200000000002 219.46140000000003)" d="M 0 0m 6.21 0 c -3.4265788 0 -6.21 2.7834213 -6.21 6.21 c 0 3.4265785 2.7834213 6.21 6.21 6.21 c 3.4265785 0 6.21 -2.7834215 6.21 -6.21 c 0 -3.4265788 -2.7834215 -6.21 -6.21 -6.21 Z "/>
                        <path class="typst-shape" fill="none" transform="matrix(1 0 0 1 105.19739999995002 197.89717499999998)" d="M 0 0h 249.48676 v 9.34605 h -249.48676 v -9.34605 Z "/>
                        <g class="typst-group">
                            <g>
                                <g class="typst-group" transform="matrix(1 0 0 1 105.19739992913387 197.89717492913388)">
                                    <g>
                                        <g class="typst-group">
                                            <g>
                                                <g class="typst-group">
                                                    <g>
                                                        <g class="typst-text" transform="matrix(1 0 0 -1 0.00000000005000072447069752 9.974812500000002)">
                                                            <use xlink:href="#g203EE2CE83BAC229D6042FFC224E2E4F" x="0" y="0" fill="#000000" fill-rule="nonzero"/>
                                                        </g>
                                                        <g class="typst-text" transform="matrix(1 0 0 -1 15.525000000050001 9.974812500000002)"/>
                                                        <g class="typst-text" transform="matrix(1 0 0 -1 65.98125000005 9.974812500000002)">
                                                            <use xlink:href="#g69607993AB38FFF154BF11B3D60BBFDF" x="0" y="0" fill="#000000" fill-rule="nonzero"/>
                                                            <use xlink:href="#g82C68831756F68AF1E2E08EF77D37A38" x="7.452" y="0" fill="#000000" fill-rule="nonzero"/>
                                                            <use xlink:href="#g69607993AB38FFF154BF11B3D60BBFDF" x="14.904" y="0" fill="#000000" fill-rule="nonzero"/>
                                                            <use xlink:href="#g69607993AB38FFF154BF11B3D60BBFDF" x="22.356" y="0" fill="#000000" fill-rule="nonzero"/>
                                                            <use xlink:href="#g82C68831756F68AF1E2E08EF77D37A38" x="29.808" y="0" fill="#000000" fill-rule="nonzero"/>
                                                            <use xlink:href="#g82C68831756F68AF1E2E08EF77D37A38" x="37.26" y="0" fill="#000000" fill-rule="nonzero"/>
                                                        </g>
                                                        <g class="typst-text" transform="matrix(1 0 0 -1 110.69325000005 9.974812500000002)"/>
                                                        <g class="typst-text" transform="matrix(1 0 0 -1 161.14950000005 9.974812500000002)">
                                                            <use xlink:href="#g203EE2CE83BAC229D6042FFC224E2E4F" x="0" y="0" fill="#000000" fill-rule="nonzero"/>
                                                        </g>
                                                        <g class="typst-text" transform="matrix(1 0 0 -1 176.67450000004996 9.974812500000002)"/>
                                                        <g class="typst-text" transform="matrix(1 0 0 -1 227.13075000005003 9.974812500000002)">
                                                            <use xlink:href="#g69607993AB38FFF154BF11B3D60BBFDF" x="0" y="0" fill="#000000" fill-rule="nonzero"/>
                                                            <use xlink:href="#g648E3B98CC6171252EE66407D18C3F0E" x="7.452" y="0" fill="#000000" fill-rule="nonzero"/>
                                                            <use xlink:href="#g228584A3399C8212A65C3D96209DDE0" x="14.904" y="0" fill="#000000" fill-rule="nonzero"/>
                                                        </g>
                                                    </g>
                                                </g>
                                            </g>
                                        </g>
                                    </g>
                                </g>
                            </g>
                        </g>
                        <path class="typst-shape" fill="none" stroke="#000000" stroke-width="0.8" stroke-linecap="butt" stroke-linejoin="miter" stroke-miterlimit="4" transform="matrix(1 0 0 1 0 259.57800000000003)" d="M 0 0m 6.21 0 c -3.4265788 0 -6.21 2.7834213 -6.21 6.21 c 0 3.4265785 2.7834213 6.21 6.21 6.21 c 3.4265785 0 6.21 -2.7834215 6.21 -6.21 c 0 -3.4265788 -2.7834215 -6.21 -6.21 -6.21 Z "/>
                        <path class="typst-shape" fill="none" stroke="#000000" stroke-width="0.8" stroke-linecap="butt" stroke-linejoin="miter" stroke-miterlimit="4" transform="matrix(1 0 0 1 23.101200000000002 282.43080000000003)" d="M 0 0m 6.21 0 c -3.4265788 0 -6.21 2.7834213 -6.21 6.21 c 0 3.4265785 2.7834213 6.21 6.21 6.21 c 3.4265785 0 6.21 -2.7834215 6.21 -6.21 c 0 -3.4265788 -2.7834215 -6.21 -6.21 -6.21 Z "/>
                        <path class="typst-shape" fill="none" stroke="#000000" stroke-width="0.8" stroke-linecap="butt" stroke-linejoin="miter" stroke-miterlimit="4" transform="matrix(1 0 0 1 46.2024 305.6562)" d="M 0 0m 6.21 0 c -3.4265788 0 -6.21 2.7834213 -6.21 6.21 c 0 3.4265785 2.7834213 6.21 6.21 6.21 c 3.4265785 0 6.21 -2.7834215 6.21 -6.21 c 0 -3.4265788 -2.7834215 -6.21 -6.21 -6.21 Z "/>
                        <path class="typst-shape" fill="none" transform="matrix(1 0 0 1 105.19739999995002 283.967775)" d="M 0 0h 249.48676 v 9.34605 h -249.48676 v -9.34605 Z "/>
                        <g class="typst-group">
                            <g>
                                <g class="typst-group" transform="matrix(1 0 0 1 105.19739992913387 283.96777492913395)">
                                    <g>
                                        <g class="typst-group">
                                            <g>
                                                <g class="typst-group">
                                                    <g>
                                                        <g class="typst-text" transform="matrix(1 0 0 -1 0.00000000005000072447069752 9.974812500000002)">
                                                            <use xlink:href="#g203EE2CE83BAC229D6042FFC224E2E4F" x="0" y="0" fill="#000000" fill-rule="nonzero"/>
                                                        </g>
                                                        <g class="typst-text" transform="matrix(1 0 0 -1 15.525000000050001 9.974812500000002)"/>
                                                        <g class="typst-text" transform="matrix(1 0 0 -1 65.98125000005 9.974812500000002)">
                                                            <use xlink:href="#g69607993AB38FFF154BF11B3D60BBFDF" x="0" y="0" fill="#000000" fill-rule="nonzero"/>
                                                            <use xlink:href="#g82C68831756F68AF1E2E08EF77D37A38" x="7.452" y="0" fill="#000000" fill-rule="nonzero"/>
                                                            <use xlink:href="#g69607993AB38FFF154BF11B3D60BBFDF" x="14.904" y="0" fill="#000000" fill-rule="nonzero"/>
                                                            <use xlink:href="#g82C68831756F68AF1E2E08EF77D37A38" x="22.356" y="0" fill="#000000" fill-rule="nonzero"/>
                                                            <use xlink:href="#g69607993AB38FFF154BF11B3D60BBFDF" x="29.808" y="0" fill="#000000" fill-rule="nonzero"/>
                                                            <use xlink:href="#g82C68831756F68AF1E2E08EF77D37A38" x="37.26" y="0" fill="#000000" fill-rule="nonzero"/>
                                                        </g>
                                                        <g class="typst-text" transform="matrix(1 0 0 -1 110.69325000005 9.974812500000002)"/>
                                                        <g class="typst-text" transform="matrix(1 0 0 -1 161.14950000005 9.974812500000002)">
                                                            <use xlink:href="#g203EE2CE83BAC229D6042FFC224E2E4F" x="0" y="0" fill="#000000" fill-rule="nonzero"/>
                                                        </g>
                                                        <g class="typst-text" transform="matrix(1 0 0 -1 176.67450000004996 9.974812500000002)"/>
                                                        <g class="typst-text" transform="matrix(1 0 0 -1 227.13075000005003 9.974812500000002)">
                                                            <use xlink:href="#g69607993AB38FFF154BF11B3D60BBFDF" x="0" y="0" fill="#000000" fill-rule="nonzero"/>
                                                            <use xlink:href="#g228584A3399C8212A65C3D96209DDE0" x="7.452" y="0" fill="#000000" fill-rule="nonzero"/>
                                                            <use xlink:href="#g648E3B98CC6171252EE66407D18C3F0E" x="14.904" y="0" fill="#000000" fill-rule="nonzero"/>
                                                        </g>
                                                    </g>
                                                </g>
                                            </g>
                                        </g>
                                    </g>
                                </g>
                            </g>
                        </g>
                        <path class="typst-shape" fill="none" stroke="#000000" stroke-width="0.8" stroke-linecap="butt" stroke-linejoin="miter" stroke-miterlimit="4" transform="matrix(1 0 0 1 23.101200000000002 346.5180000000001)" d="M 0 0m 6.21 0 c -3.4265788 0 -6.21 2.7834213 -6.21 6.21 c 0 3.4265785 2.7834213 6.21 6.21 6.21 c 3.4265785 0 6.21 -2.7834215 6.21 -6.21 c 0 -3.4265788 -2.7834215 -6.21 -6.21 -6.21 Z "/>
                        <path class="typst-shape" fill="none" stroke="#000000" stroke-width="0.8" stroke-linecap="butt" stroke-linejoin="miter" stroke-miterlimit="4" transform="matrix(1 0 0 1 0 368.6256)" d="M 0 0m 6.21 0 c -3.4265788 0 -6.21 2.7834213 -6.21 6.21 c 0 3.4265785 2.7834213 6.21 6.21 6.21 c 3.4265785 0 6.21 -2.7834215 6.21 -6.21 c 0 -3.4265788 -2.7834215 -6.21 -6.21 -6.21 Z "/>
                        <path class="typst-shape" fill="none" stroke="#000000" stroke-width="0.8" stroke-linecap="butt" stroke-linejoin="miter" stroke-miterlimit="4" transform="matrix(1 0 0 1 46.2024 368.6256)" d="M 0 0m 6.21 0 c -3.4265788 0 -6.21 2.7834213 -6.21 6.21 c 0 3.4265785 2.7834213 6.21 6.21 6.21 c 3.4265785 0 6.21 -2.7834215 6.21 -6.21 c 0 -3.4265788 -2.7834215 -6.21 -6.21 -6.21 Z "/>
                        <path class="typst-shape" fill="none" transform="matrix(1 0 0 1 105.19739999995002 370.16257500000006)" d="M 0 0h 249.48676 v 9.34605 h -249.48676 v -9.34605 Z "/>
                        <g class="typst-group">
                            <g>
                                <g class="typst-group" transform="matrix(1 0 0 1 105.19739992913387 370.16257492913394)">
                                    <g>
                                        <g class="typst-group">
                                            <g>
                                                <g class="typst-group">
                                                    <g>
                                                        <g class="typst-text" transform="matrix(1 0 0 -1 0.00000000005000072447069752 9.974812500000002)">
                                                            <use xlink:href="#g203EE2CE83BAC229D6042FFC224E2E4F" x="0" y="0" fill="#000000" fill-rule="nonzero"/>
                                                        </g>
                                                        <g class="typst-text" transform="matrix(1 0 0 -1 15.525000000050001 9.974812500000002)"/>
                                                        <g class="typst-text" transform="matrix(1 0 0 -1 65.98125000005 9.974812500000002)">
                                                            <use xlink:href="#g69607993AB38FFF154BF11B3D60BBFDF" x="0" y="0" fill="#000000" fill-rule="nonzero"/>
                                                            <use xlink:href="#g69607993AB38FFF154BF11B3D60BBFDF" x="7.452" y="0" fill="#000000" fill-rule="nonzero"/>
                                                            <use xlink:href="#g82C68831756F68AF1E2E08EF77D37A38" x="14.904" y="0" fill="#000000" fill-rule="nonzero"/>
                                                            <use xlink:href="#g82C68831756F68AF1E2E08EF77D37A38" x="22.356" y="0" fill="#000000" fill-rule="nonzero"/>
                                                            <use xlink:href="#g69607993AB38FFF154BF11B3D60BBFDF" x="29.808" y="0" fill="#000000" fill-rule="nonzero"/>
                                                            <use xlink:href="#g82C68831756F68AF1E2E08EF77D37A38" x="37.26" y="0" fill="#000000" fill-rule="nonzero"/>
                                                        </g>
                                                        <g class="typst-text" transform="matrix(1 0 0 -1 110.69325000005 9.974812500000002)"/>
                                                        <g class="typst-text" transform="matrix(1 0 0 -1 161.14950000005 9.974812500000002)">
                                                            <use xlink:href="#g203EE2CE83BAC229D6042FFC224E2E4F" x="0" y="0" fill="#000000" fill-rule="nonzero"/>
                                                        </g>
                                                        <g class="typst-text" transform="matrix(1 0 0 -1 176.67450000004996 9.974812500000002)"/>
                                                        <g class="typst-text" transform="matrix(1 0 0 -1 227.13075000005003 9.974812500000002)">
                                                            <use xlink:href="#g228584A3399C8212A65C3D96209DDE0" x="0" y="0" fill="#000000" fill-rule="nonzero"/>
                                                            <use xlink:href="#g69607993AB38FFF154BF11B3D60BBFDF" x="7.452" y="0" fill="#000000" fill-rule="nonzero"/>
                                                            <use xlink:href="#g648E3B98CC6171252EE66407D18C3F0E" x="14.904" y="0" fill="#000000" fill-rule="nonzero"/>
                                                        </g>
                                                    </g>
                                                </g>
                                            </g>
                                        </g>
                                    </g>
                                </g>
                            </g>
                        </g>
                    </g>
                </g>
            </g>
        </g>
    </g>
    <defs id="glyph">
        <symbol id="g203EE2CE83BAC229D6042FFC224E2E4F" overflow="visible">
            <path d="M 0 0m 14.4693 3.63285 c 0.108675 0.04657507 0.17077446 0.13972521 0.17077446 0.24840021 c 0 0.108675 -0.062099457 0.2018249 -0.17077446 0.24839997 c -0.74520016 0.24839973 -1.4438248 0.7762499 -2.0958748 1.58355 c -0.4347 0.543375 -0.7296753 1.1799002 -0.8694 1.909575 c -0.046575546 0.20182514 -0.17077541 0.2949748 -0.37260056 0.2949748 c -0.24839973 0 -0.3725996 -0.12419987 -0.3725996 -0.38812494 l 0.015524864 -0.031049728 v -0.015525341 c 0.2639246 -1.3506746 0.9470253 -2.4218998 2.08035 -3.2292 h -11.58165 c -0.24840009 0 -0.37260008 -0.12419987 -0.37260008 -0.37259984 c 0 -0.24840021 0.12419999 -0.37260008 0.37260008 -0.37260008 h 11.58165 c -1.1333246 -0.8073001 -1.8164253 -1.878525 -2.08035 -3.2292001 v -0.015524983 l -0.015524864 -0.031050012 c 0 -0.26392502 0.12419987 -0.388125 0.3725996 -0.388125 c 0.20182514 0 0.326025 0.09315 0.37260056 0.29497498 c 0.13972473 0.72967505 0.4347 1.3662001 0.8694 1.909575 c 0.65205 0.8073001 1.3506746 1.33515 2.0958748 1.58355 Z "/>
        </symbol>
        <symbol id="g69607993AB38FFF154BF11B3D60BBFDF" overflow="visible">
            <path d="M 0 0m 1.1178 0 v 1.01844 h 2.4591599 v 7.079399 l -2.4591599 -1.8381596 v 1.2792602 l 2.0493 1.5276599 h 1.5276599 v -8.04816 h 2.0120401 v -1.01844 h -5.5889997 Z "/>
        </symbol>
        <symbol id="g82C68831756F68AF1E2E08EF77D37A38" overflow="visible">
            <path d="M 0 0m 3.7259998 -0.124199994 q -1.2544198 0 -1.9934099 0.72656995 q -0.73899 0.72656995 -0.73899 1.9437299 v 3.9743998 q 0 1.2171602 0.73899 1.9437299 q 0.73899007 0.7265701 1.9934099 0.7265701 q 1.2544198 0 1.9934101 -0.7265701 q 0.73898983 -0.72656965 0.73898983 -1.9437299 v -3.9743998 q 0 -0.8073 -0.33534002 -1.40967 q -0.33534002 -0.6023699 -0.95013 -0.9314999 q -0.61478996 -0.32913 -1.4469299 -0.32913 Z m 0 0.95633996 q 0.74520016 0 1.1985302 0.47817004 q 0.45332956 0.47816992 0.45332956 1.2357899 v 3.9743998 q 0 0.75761986 -0.45332956 1.2357903 q -0.45333004 0.47816992 -1.1985302 0.47816992 q -0.7451999 0 -1.19853 -0.47816992 q -0.45333004 -0.4781704 -0.45333004 -1.2357903 v -3.9743998 q 0 -0.75762 0.45333004 -1.2357899 q 0.45333004 -0.47817004 1.19853 -0.47817004 Z m 0 3.01806 q -0.33534002 0 -0.54026985 0.18630004 q -0.20493007 0.1862998 -0.20493007 0.53406 q 0 0.33534002 0.20493007 0.51543 q 0.20492983 0.18008995 0.54026985 0.18008995 q 0.33534002 0 0.54026985 -0.18008995 q 0.2049303 -0.18008995 0.2049303 -0.51543 q 0 -0.3477602 -0.2049303 -0.53406 q -0.20492983 -0.18630004 -0.54026985 -0.18630004 Z "/>
        </symbol>
        <symbol id="g648E3B98CC6171252EE66407D18C3F0E" overflow="visible">
            <path d="M 0 0m 3.5893798 -0.124199994 q -1.2544198 0 -1.9871998 0.70172995 q -0.73278004 0.70172995 -0.73278004 1.9064701 h 1.1178 q 0 -0.74520004 0.43470013 -1.1799 q 0.43469977 -0.43469995 1.1798999 -0.43469995 q 0.7451997 0 1.1798997 0.43469995 q 0.4347 0.4347 0.4347 1.1799 v 0.6209998 q 0 0.74520016 -0.4347 1.1798999 q -0.4347 0.4347 -1.1798997 0.4347 h -0.98117995 v 0.96876 l 2.22318 2.3597999 h -3.726 v 1.0184402 h 4.99284 v -1.0432796 l -2.1859198 -2.3225403 q 1.1178002 -0.08694029 1.7636399 -0.7762499 q 0.64584017 -0.6893101 0.64584017 -1.8195302 v -0.6209998 q 0 -1.20474 -0.7389903 -1.9064701 q -0.73898983 -0.70172995 -2.0058298 -0.70172995 Z "/>
        </symbol>
        <symbol id="g228584A3399C8212A65C3D96209DDE0" overflow="visible">
            <path d="M 0 0m 1.06812 0 v 1.03086 l 3.0180597 3.2292 q 0.65825987 0.6955199 0.93149996 1.2420001 q 0.2732401 0.5464797 0.2732401 1.06812 q 0 0.7451997 -0.42849016 1.18611 q -0.42848969 0.44090986 -1.1612697 0.44090986 q -0.7576201 0 -1.19853 -0.45333004 q -0.4409101 -0.45333004 -0.4409101 -1.2233701 h -1.1178 q 0.037259996 1.2295799 0.78246003 1.9499402 q 0.74520004 0.7203598 1.97478 0.7203598 q 1.2544198 0 1.9934096 -0.7079401 q 0.7389903 -0.7079401 0.7389903 -1.9250998 q 0 -0.64584017 -0.35397005 -1.3662 q -0.35397005 -0.7203598 -1.2109499 -1.6146 l -2.44674 -2.5585198 h 4.12344 v -1.01844 h -5.4772196 Z "/>
        </symbol>
    </defs>
</svg>
