<svg class="typst-doc" viewBox="0 0 61.7274 46.574999999999996" width="61.7274pt" height="46.574999999999996pt" xmlns="http://www.w3.org/2000/svg" xmlns:xlink="http://www.w3.org/1999/xlink" xmlns:h5="http://www.w3.org/1999/xhtml">
    <path class="typst-shape" fill="#00000000" fill-rule="nonzero" d="M 0 0v 46.575 h 61.7274 v -46.575 Z "/>
    <g>
        <g class="typst-group" transform="matrix(1 0 0 1 1.5525000000000002 7.7625)">
            <g>
                <g class="typst-group">
                    <g>
                        <g class="typst-group">
                            <g>
                                <path class="typst-shape" fill="none" stroke="#000000" stroke-width="0.7452" stroke-linecap="round" stroke-linejoin="miter" stroke-miterlimit="4" transform="matrix(1 0 0 1 10.688924748674511 10.496282824000444)" d="M 0 0m 14.143351 0 l -14.143351 13.535034 "/>
                                <path class="typst-shape" fill="none" stroke="#000000" stroke-width="0.7452" stroke-linecap="round" stroke-linejoin="miter" stroke-miterlimit="4" transform="matrix(1 0 0 1 33.7901247486747 10.49628282400053)" d="M 0 0l 14.143351 13.535034 "/>
                                <path class="typst-shape" fill="none" stroke="#000000" stroke-width="0.8" stroke-linecap="butt" stroke-linejoin="miter" stroke-miterlimit="4" transform="matrix(1 0 0 1 23.101200000000002 0)" d="M 0 0m 6.21 0 c -3.4265788 0 -6.21 2.7834213 -6.21 6.21 c 0 3.4265785 2.7834213 6.21 6.21 6.21 c 3.4265785 0 6.21 -2.7834215 6.21 -6.21 c 0 -3.4265788 -2.7834215 -6.21 -6.21 -6.21 Z "/>
                                <path class="typst-shape" fill="none" stroke="#000000" stroke-width="0.8" stroke-linecap="butt" stroke-linejoin="miter" stroke-miterlimit="4" transform="matrix(1 0 0 1 0 22.1076)" d="M 0 0m 6.21 0 c -3.4265788 0 -6.21 2.7834213 -6.21 6.21 c 0 3.4265785 2.7834213 6.21 6.21 6.21 c 3.4265785 0 6.21 -2.7834215 6.21 -6.21 c 0 -3.4265788 -2.7834215 -6.21 -6.21 -6.21 Z "/>
                                <path class="typst-shape" fill="none" stroke="#000000" stroke-width="0.8" stroke-linecap="butt" stroke-linejoin="miter" stroke-miterlimit="4" transform="matrix(1 0 0 1 46.2024 22.1076)" d="M 0 0m 6.21 0 c -3.4265788 0 -6.21 2.7834213 -6.21 6.21 c 0 3.4265785 2.7834213 6.21 6.21 6.21 c 3.4265785 0 6.21 -2.7834215 6.21 -6.21 c 0 -3.4265788 -2.7834215 -6.21 -6.21 -6.21 Z "/>
                            </g>
                        </g>
                    </g>
                </g>
            </g>
        </g>
    </g>
</svg>
