<svg class="typst-doc" viewBox="0 0 52.4832 39.6" width="52.4832pt" height="39.6pt" xmlns="http://www.w3.org/2000/svg" xmlns:xlink="http://www.w3.org/1999/xlink" xmlns:h5="http://www.w3.org/1999/xhtml">
    <path class="typst-shape" fill="#00000000" fill-rule="nonzero" d="M 0 0v 39.6 h 52.4832 v -39.6 Z "/>
    <g>
        <g class="typst-group" transform="matrix(1 0 0 1 1.3199999999999998 6.6)">
            <g>
                <g class="typst-group">
                    <g>
                        <g class="typst-group">
                            <g>
                                <path class="typst-shape" fill="none" stroke="#000000" stroke-width="0.6335999999999999" stroke-linecap="round" stroke-linejoin="miter" stroke-miterlimit="4" transform="matrix(1 0 0 1 9.088167989373424 8.924375784070346)" d="M 0 0m 12.025264 0 l -12.025264 11.508048 "/>
                                <path class="typst-shape" fill="none" stroke="#000000" stroke-width="0.6335999999999999" stroke-linecap="round" stroke-linejoin="miter" stroke-miterlimit="4" transform="matrix(1 0 0 1 28.72976794485663 8.924375684761204)" d="M 0 0l 12.025264 11.508048 "/>
                                <path class="typst-shape" fill="none" stroke="#000000" stroke-width="0.8" stroke-linecap="butt" stroke-linejoin="miter" stroke-miterlimit="4" transform="matrix(1 0 0 1 19.6416 0)" d="M 0 0m 5.28 0 c -2.9134197 0 -5.28 2.3665805 -5.28 5.28 c 0 2.9134192 2.3665805 5.28 5.28 5.28 c 2.9134192 0 5.28 -2.366581 5.28 -5.28 c 0 -2.9134197 -2.366581 -5.28 -5.28 -5.28 Z "/>
                                <path class="typst-shape" fill="none" stroke="#000000" stroke-width="0.8" stroke-linecap="butt" stroke-linejoin="miter" stroke-miterlimit="4" transform="matrix(1 0 0 1 0 18.796799905511808)" d="M 0 0m 5.28 0 c -2.9134197 0 -5.28 2.3665805 -5.28 5.28 c 0 2.9134192 2.3665805 5.28 5.28 5.28 c 2.9134192 0 5.28 -2.366581 5.28 -5.28 c 0 -2.9134197 -2.366581 -5.28 -5.28 -5.28 Z "/>
                                <path class="typst-shape" fill="none" stroke="#000000" stroke-width="0.8" stroke-linecap="butt" stroke-linejoin="miter" stroke-miterlimit="4" transform="matrix(1 0 0 1 39.2832 18.796799905511808)" d="M 0 0m 5.28 0 c -2.9134197 0 -5.28 2.3665805 -5.28 5.28 c 0 2.9134192 2.3665805 5.28 5.28 5.28 c 2.9134192 0 5.28 -2.366581 5.28 -5.28 c 0 -2.9134197 -2.366581 -5.28 -5.28 -5.28 Z "/>
                            </g>
                        </g>
                    </g>
                </g>
            </g>
        </g>
    </g>
</svg>
