<svg class="typst-doc" viewBox="0 0 196.42229999999998 109.218375" width="196.42229999999998pt" height="109.218375pt" xmlns="http://www.w3.org/2000/svg" xmlns:xlink="http://www.w3.org/1999/xlink" xmlns:h5="http://www.w3.org/1999/xhtml">
    <path class="typst-shape" fill="#00000000" fill-rule="nonzero" d="M 0 0v 109.218376 h 196.4223 v -109.218376 Z "/>
    <g>
        <g class="typst-group" transform="matrix(1 0 0 1 0 18.63)">
            <g>
                <g class="typst-group" transform="matrix(1 0 0 1 0 31.05)">
                    <g>
                        <g class="typst-group">
                            <g>
                                <g class="typst-text" transform="matrix(1 0 0 -1 0 6.908625)">
                                    <use xlink:href="#gF8D4D6C60A062065A69CBCB34ABD92AC" x="0" y="0" fill="#000000" fill-rule="nonzero"/>
                                </g>
                                <g class="typst-group" transform="matrix(1 0 0 1 3.88125 30.196125)">
                                    <g/>
                                </g>
                            </g>
                        </g>
                    </g>
                </g>
                <g class="typst-text" transform="matrix(1 0 0 -1 54.33749999999999 37.91205)">
                    <use xlink:href="#g5FA02E8237EE0A948B59AA2A39DF02FE" x="0" y="0" fill="#000000" fill-rule="nonzero"/>
                    <use xlink:href="#g22B2C313C5ABBC4007ABA33817F72994" x="7.8246" y="0" fill="#000000" fill-rule="nonzero"/>
                </g>
                <g class="typst-group" transform="matrix(1 0 0 1 114.51239999999999 0)">
                    <g>
                        <g class="typst-group">
                            <g>
                                <g class="typst-text" transform="matrix(1 0 0 -1 37.0737 6.908625)">
                                    <use xlink:href="#gF8D4D6C60A062065A69CBCB34ABD92AC" x="0" y="0" fill="#000000" fill-rule="nonzero"/>
                                </g>
                                <g class="typst-group" transform="matrix(1 0 0 1 0 30.196125)">
                                    <g>
                                        <path class="typst-shape" fill="none" stroke="#000000" stroke-width="0.75" stroke-linecap="butt" stroke-linejoin="miter" stroke-miterlimit="4" transform="matrix(1 0 0 1 15.525 -4.6575)" d="M 0 0l 25.42995 -13.9725 "/>
                                        <g class="typst-group">
                                            <g>
                                                <g class="typst-group">
                                                    <g>
                                                        <g class="typst-text" transform="matrix(1 0 0 -1 11.643749999999999 6.908625)">
                                                            <use xlink:href="#gF8D4D6C60A062065A69CBCB34ABD92AC" x="0" y="0" fill="#000000" fill-rule="nonzero"/>
                                                        </g>
                                                        <g class="typst-group" transform="matrix(1 0 0 1 0 30.196125)">
                                                            <g>
                                                                <path class="typst-shape" fill="none" stroke="#000000" stroke-width="0.75" stroke-linecap="butt" stroke-linejoin="miter" stroke-miterlimit="4" transform="matrix(1 0 0 1 3.88125 -4.6575)" d="M 0 0l 11.64375 -13.9725 "/>
                                                                <g class="typst-group">
                                                                    <g>
                                                                        <g class="typst-group">
                                                                            <g>
                                                                                <g class="typst-text" transform="matrix(1 0 0 -1 0 6.908625)">
                                                                                    <use xlink:href="#gF8D4D6C60A062065A69CBCB34ABD92AC" x="0" y="0" fill="#000000" fill-rule="nonzero"/>
                                                                                </g>
                                                                                <g class="typst-group" transform="matrix(1 0 0 1 3.88125 30.196125)">
                                                                                    <g/>
                                                                                </g>
                                                                            </g>
                                                                        </g>
                                                                    </g>
                                                                </g>
                                                                <g class="typst-group">
                                                                    <g>
                                                                        <path class="typst-shape" fill="none" stroke="#000000" stroke-width="0.75" stroke-linecap="butt" stroke-linejoin="miter" stroke-miterlimit="4" transform="matrix(1 0 0 1 27.168749999999996 -4.6575)" d="M 0 0l -11.64375 -13.9725 "/>
                                                                        <g class="typst-group" transform="matrix(1 0 0 1 23.287499999999998 0)">
                                                                            <g>
                                                                                <g class="typst-group">
                                                                                    <g>
                                                                                        <g class="typst-text" transform="matrix(1 0 0 -1 0 6.908625)">
                                                                                            <use xlink:href="#gF8D4D6C60A062065A69CBCB34ABD92AC" x="0" y="0" fill="#000000" fill-rule="nonzero"/>
                                                                                        </g>
                                                                                        <g class="typst-group" transform="matrix(1 0 0 1 3.88125 30.196125)">
                                                                                            <g/>
                                                                                        </g>
                                                                                    </g>
                                                                                </g>
                                                                            </g>
                                                                        </g>
                                                                    </g>
                                                                </g>
                                                            </g>
                                                        </g>
                                                    </g>
                                                </g>
                                            </g>
                                        </g>
                                        <g class="typst-group">
                                            <g>
                                                <path class="typst-shape" fill="none" stroke="#000000" stroke-width="0.75" stroke-linecap="butt" stroke-linejoin="miter" stroke-miterlimit="4" transform="matrix(1 0 0 1 64.24244999999999 -4.6575)" d="M 0 0l -23.2875 -13.9725 "/>
                                                <g class="typst-group" transform="matrix(1 0 0 1 46.574999999999996 0)">
                                                    <g>
                                                        <g class="typst-group">
                                                            <g>
                                                                <g class="typst-text" transform="matrix(1 0 0 -1 13.7862 6.908625)">
                                                                    <use xlink:href="#gF8D4D6C60A062065A69CBCB34ABD92AC" x="0" y="0" fill="#000000" fill-rule="nonzero"/>
                                                                </g>
                                                                <g class="typst-group" transform="matrix(1 0 0 1 0 30.196125)">
                                                                    <g>
                                                                        <path class="typst-shape" fill="none" stroke="#000000" stroke-width="0.75" stroke-linecap="butt" stroke-linejoin="miter" stroke-miterlimit="4" transform="matrix(1 0 0 1 3.88125 -4.6575)" d="M 0 0l 13.7862 -13.9725 "/>
                                                                        <g class="typst-group">
                                                                            <g>
                                                                                <g class="typst-group">
                                                                                    <g>
                                                                                        <g class="typst-text" transform="matrix(1 0 0 -1 0 6.908625)">
                                                                                            <use xlink:href="#gF8D4D6C60A062065A69CBCB34ABD92AC" x="0" y="0" fill="#000000" fill-rule="nonzero"/>
                                                                                        </g>
                                                                                        <g class="typst-group" transform="matrix(1 0 0 1 3.88125 30.196125)">
                                                                                            <g/>
                                                                                        </g>
                                                                                    </g>
                                                                                </g>
                                                                            </g>
                                                                        </g>
                                                                        <g class="typst-group">
                                                                            <g>
                                                                                <path class="typst-shape" fill="none" stroke="#000000" stroke-width="0.75" stroke-linecap="butt" stroke-linejoin="miter" stroke-miterlimit="4" transform="matrix(1 0 0 1 29.3112 -4.6575)" d="M 0 0l -11.64375 -13.9725 "/>
                                                                                <g class="typst-group" transform="matrix(1 0 0 1 23.287499999999998 0)">
                                                                                    <g>
                                                                                        <g class="typst-group">
                                                                                            <g>
                                                                                                <g class="typst-text" transform="matrix(1 0 0 -1 0 4.704075)">
                                                                                                    <use xlink:href="#g69B776695EF1F76028B19FFE5D99617C" x="0" y="0" fill="#000000" fill-rule="nonzero"/>
                                                                                                </g>
                                                                                                <g class="typst-group" transform="matrix(1 0 0 1 6.0237 27.991574999999997)">
                                                                                                    <g/>
                                                                                                </g>
                                                                                            </g>
                                                                                        </g>
                                                                                    </g>
                                                                                </g>
                                                                            </g>
                                                                        </g>
                                                                    </g>
                                                                </g>
                                                            </g>
                                                        </g>
                                                    </g>
                                                </g>
                                            </g>
                                        </g>
                                    </g>
                                </g>
                            </g>
                        </g>
                    </g>
                </g>
            </g>
        </g>
    </g>
    <defs id="glyph">
        <symbol id="gF8D4D6C60A062065A69CBCB34ABD92AC" overflow="visible">
            <path d="M 0 0m 6.908625 3.8812501 c 0 0.26392484 0 0.4502251 -0.015524864 0.5589001 c -0.04657507 0.5123248 -0.326025 1.040175 -0.8694 1.58355 c -0.5899501 0.5899496 -1.3041 0.8849249 -2.14245 0.8849249 c -1.6922252 0 -3.0273752 -1.3351502 -3.0273752 -3.027375 c 0 -1.6922252 1.33515 -3.0273752 3.0273752 -3.0273752 c 1.6922247 0 3.027375 1.33515 3.027375 3.0273752 Z "/>
        </symbol>
        <symbol id="g5FA02E8237EE0A948B59AA2A39DF02FE" overflow="visible">
            <path d="M 0 0m 0.63652503 3.182625 c 0 -1.5835501 1.0557 -3.3378751 3.26025 -3.3378751 c 0.99360013 0 1.7543252 0.357075 2.2821748 0.8694 c 0.6986251 0.68310004 1.0091252 1.661175 1.0091252 2.6082 c 0 1.6146002 -0.8849249 3.493125 -3.26025 3.493125 c -1.0246499 0 -1.8629999 -0.41917515 -2.437425 -1.08675 c -0.55890006 -0.6675749 -0.85387504 -1.5680251 -0.85387504 -2.5461 Z m 3.058425 3.089475 c 1.3351498 0 2.1579752 -1.2109499 2.1579752 -3.44655 c 0 -1.95615 -1.0091252 -2.4374251 -1.7388 -2.4374251 c -1.6146002 0 -2.1424503 1.95615 -2.1424503 3.151575 c 0 1.3506751 0.3260249 2.7324 1.7232751 2.7324 Z "/>
        </symbol>
        <symbol id="g22B2C313C5ABBC4007ABA33817F72994" overflow="visible">
            <path d="M 0 0m 2.7324 5.55795 c -0.031049967 0.6209998 -0.04657483 1.0246501 -0.12419987 1.1799002 c -0.031049967 0.0776248 -0.062099934 0.12419987 -0.18630004 0.12419987 c -0.4347 -0.17077494 -0.83835006 -0.31050014 -1.909575 -0.45022488 c -0.031049997 -0.09315014 0 -0.34155035 0.031050026 -0.4347 c 0.83835006 -0.077625275 1.009125 -0.15525007 1.009125 -1.0557003 v -3.0273747 c 0 -1.2885749 -0.18630004 -1.350675 -1.14885 -1.412775 c -0.09315002 -0.09314999 -0.09315002 -0.419175 0 -0.512325 c 0.543375 0.015525 1.14885 0.03105 1.76985 0.03105 c 0.62100005 0 1.33515 -0.015525 1.8785248 -0.03105 c 0.09315014 0.093150005 0.09315014 0.419175 0 0.512325 c -1.0867498 0.07762501 -1.2730498 0.124200016 -1.2730498 1.412775 v 2.1579747 c 0 0.40365028 0.18630004 0.760725 0.37260008 1.0401754 c 0.17077494 0.24839973 0.5278499 0.760725 0.71414995 0.760725 c 0.13972521 0 0.27944994 -0.031050205 0.4036498 -0.20182514 c 0.108675 -0.15525007 0.29497528 -0.3570752 0.55890036 -0.3570752 c 0.37260008 0 0.7296748 0.38812494 0.7296748 0.7762499 c 0 0.29497528 -0.27944994 0.74520016 -0.93149996 0.74520016 c -0.72967505 0 -1.3662 -0.68309975 -1.723275 -1.2885747 c -0.09315014 -0.17077541 -0.17077518 -0.04657507 -0.17077518 0.031049728 Z "/>
        </symbol>
        <symbol id="g69B776695EF1F76028B19FFE5D99617C" overflow="visible">
            <path d="M 0 0m 11.178 3.8812501 c 0 0.46574998 -0.40365028 0.8228247 -0.8694 0.8228247 c -0.48127556 0 -0.8849249 -0.35707474 -0.8849249 -0.8228247 c 0 -0.46575022 0.40364933 -0.8228252 0.8849249 -0.8228252 c 0.46574974 0 0.8694 0.35707498 0.8694 0.8228252 Z m -4.2849 0 c 0 0.46574998 -0.40365028 0.8228247 -0.8694 0.8228247 c -0.48127508 0 -0.8694 -0.35707474 -0.8694 -0.8228247 c 0 -0.46575022 0.38812494 -0.8228252 0.8694 -0.8228252 c 0.46574974 0 0.8694 0.35707498 0.8694 0.8228252 Z m -4.2693753 0 c 0 0.46574998 -0.4036498 0.8228247 -0.8849249 0.8228247 c -0.46574998 0 -0.8694 -0.35707474 -0.8694 -0.8228247 c 0 -0.46575022 0.40365005 -0.8228252 0.8694 -0.8228252 c 0.46574998 0 0.8849249 0.35707498 0.8849249 0.8228252 Z "/>
        </symbol>
    </defs>
</svg>
