<svg class="typst-doc" viewBox="0 0 61.33775181102362 46.281" width="61.33775181102362pt" height="46.281pt" xmlns="http://www.w3.org/2000/svg" xmlns:xlink="http://www.w3.org/1999/xlink" xmlns:h5="http://www.w3.org/1999/xhtml">
    <path class="typst-shape" fill="#00000000" fill-rule="nonzero" d="M 0 0 L 0 46.281 L 61.337753 46.281 L 61.337753 0 Z "/>
    <g>
        <g transform="translate(1.5427000000000002 7.7135)">
            <g class="typst-group">
                <g>
                    <g transform="translate(0 0)">
                        <g class="typst-group">
                            <g>
                                <g transform="translate(0 0)">
                                    <g class="typst-group">
                                        <g>
                                            <g transform="translate(10.621451959851232 10.43002602662532)">
                                                <path class="typst-shape" fill="none" stroke="#000000" stroke-width="0.7404959999999999" stroke-linecap="round" stroke-linejoin="miter" stroke-miterlimit="4" d="M 14.054071 0 C 14.054071 0 0 13.449595 0 13.449595 "/>
                                            </g>
                                            <g transform="translate(33.57682792280379 10.430026059728327)">
                                                <path class="typst-shape" fill="none" stroke="#000000" stroke-width="0.7404959999999999" stroke-linecap="round" stroke-linejoin="miter" stroke-miterlimit="4" d="M 0 0 C 0 0 14.054071 13.449595 14.054071 13.449595 "/>
                                            </g>
                                            <g transform="translate(22.955375905511808 0)">
                                                <path class="typst-shape" fill="none" stroke="#000000" stroke-width="0.8" stroke-linecap="butt" stroke-linejoin="miter" stroke-miterlimit="4" d="M 6.1708 0 C 2.7658513 0 0 2.7658513 0 6.1708 C 0 6.1708 0 6.1708 0 6.1708 C 0 9.575748 2.7658513 12.3416 6.1708 12.3416 C 6.1708 12.3416 6.1708 12.3416 6.1708 12.3416 C 9.575748 12.3416 12.3416 9.575748 12.3416 6.1708 C 12.3416 6.1708 12.3416 6.1708 12.3416 6.1708 C 12.3416 2.7658513 9.575748 0 6.1708 0 C 6.1708 0 6.1708 0 6.1708 0 Z "/>
                                            </g>
                                            <g transform="translate(0 21.96804784251968)">
                                                <path class="typst-shape" fill="none" stroke="#000000" stroke-width="0.8" stroke-linecap="butt" stroke-linejoin="miter" stroke-miterlimit="4" d="M 6.1708 0 C 2.7658513 0 0 2.7658513 0 6.1708 C 0 6.1708 0 6.1708 0 6.1708 C 0 9.575748 2.7658513 12.3416 6.1708 12.3416 C 6.1708 12.3416 6.1708 12.3416 6.1708 12.3416 C 9.575748 12.3416 12.3416 9.575748 12.3416 6.1708 C 12.3416 6.1708 12.3416 6.1708 12.3416 6.1708 C 12.3416 2.7658513 9.575748 0 6.1708 0 C 6.1708 0 6.1708 0 6.1708 0 Z "/>
                                            </g>
                                            <g transform="translate(45.910751811023616 21.96804784251968)">
                                                <path class="typst-shape" fill="none" stroke="#000000" stroke-width="0.8" stroke-linecap="butt" stroke-linejoin="miter" stroke-miterlimit="4" d="M 6.1708 0 C 2.7658513 0 0 2.7658513 0 6.1708 C 0 6.1708 0 6.1708 0 6.1708 C 0 9.575748 2.7658513 12.3416 6.1708 12.3416 C 6.1708 12.3416 6.1708 12.3416 6.1708 12.3416 C 9.575748 12.3416 12.3416 9.575748 12.3416 6.1708 C 12.3416 6.1708 12.3416 6.1708 12.3416 6.1708 C 12.3416 2.7658513 9.575748 0 6.1708 0 C 6.1708 0 6.1708 0 6.1708 0 Z "/>
                                            </g>
                                        </g>
                                    </g>
                                </g>
                            </g>
                        </g>
                    </g>
                </g>
            </g>
        </g>
    </g>
</svg>
