<?xml version="1.0" standalone="no"?>
<!DOCTYPE svg PUBLIC "-//W3C//DTD SVG 20010904//EN"
 "http://www.w3.org/TR/2001/REC-SVG-20010904/DTD/svg10.dtd">
<svg version="1.0" xmlns="http://www.w3.org/2000/svg"
 width="511.000000pt" height="511.000000pt" viewBox="0 0 511.000000 511.000000"
 preserveAspectRatio="xMidYMid meet">

<g transform="translate(0.000000,511.000000) scale(0.100000,-0.100000)"
fill="#000000" stroke="none">
<path d="M1978 4605 c-50 -205 -61 -285 -63 -460 0 -104 -7 -188 -23 -275 -39
-229 -47 -334 -47 -645 1 -417 35 -683 140 -1091 45 -177 145 -497 159 -511 2
-2 88 72 192 164 316 281 454 402 614 543 85 74 181 160 215 190 33 30 177
159 320 285 143 126 273 242 289 257 l30 26 -35 6 c-57 10 -699 68 -708 64 -5
-2 -46 -39 -92 -82 -169 -160 -349 -291 -518 -376 -91 -45 -265 -106 -321
-111 -33 -4 -36 -1 -57 42 -55 114 -109 360 -133 598 -11 115 -13 499 -4 638
l7 90 47 -48 c25 -27 54 -49 64 -49 16 0 18 6 12 53 -3 28 -13 198 -21 377 -9
179 -19 357 -23 395 l-8 70 -36 -150z"/>
<path d="M2568 4260 c-144 -192 -263 -460 -303 -680 -19 -106 -31 -393 -18
-427 8 -23 9 -22 78 23 244 162 377 402 377 684 1 128 -27 254 -80 372 l-28
62 -26 -34z"/>
<path d="M3785 3826 c-312 -105 -491 -210 -544 -319 -19 -39 -29 -107 -16
-107 6 0 686 448 700 461 15 15 -4 10 -140 -35z"/>
<path d="M1460 3053 c-49 -158 -65 -292 -65 -553 0 -220 2 -256 23 -348 33
-149 66 -241 132 -377 85 -175 90 -179 68 -49 -60 362 -85 619 -93 984 -8 333
-13 410 -30 410 -9 0 -23 -27 -35 -67z"/>
<path d="M3719 2559 c-609 -349 -1039 -822 -1195 -1317 -15 -50 -23 -52 101
33 335 233 689 582 957 946 97 131 277 409 265 409 -2 0 -59 -32 -128 -71z"/>
<path d="M1870 1115 c-148 -67 -189 -291 -74 -409 47 -49 96 -68 174 -70 82
-1 150 31 197 92 43 57 56 110 48 194 -9 85 -40 131 -115 172 -67 36 -174 46
-230 21z"/>
</g>
</svg>
